<?xml version="1.0" encoding="UTF-8" standalone="no"?>
<svg
   xmlns:dc="http://purl.org/dc/elements/1.1/"
   xmlns:cc="http://creativecommons.org/ns#"
   xmlns:rdf="http://www.w3.org/1999/02/22-rdf-syntax-ns#"
   xmlns:svg="http://www.w3.org/2000/svg"
   xmlns="http://www.w3.org/2000/svg"
   xmlns:sodipodi="http://sodipodi.sourceforge.net/DTD/sodipodi-0.dtd"
   xmlns:inkscape="http://www.inkscape.org/namespaces/inkscape"
   width="281pt"
   height="225pt"
   viewBox="0 0 281 225"
   version="1.1"
   id="svg4643"
   sodipodi:docname="hemispherical-coordinates.svg"
   inkscape:version="0.92.1 r15371">
  <metadata
     id="metadata4649">
    <rdf:RDF>
      <cc:Work
         rdf:about="">
        <dc:format>image/svg+xml</dc:format>
        <dc:type
           rdf:resource="http://purl.org/dc/dcmitype/StillImage" />
        <dc:title></dc:title>
      </cc:Work>
    </rdf:RDF>
  </metadata>
  <defs
     id="defs4647" />
  <sodipodi:namedview
     pagecolor="#ffffff"
     bordercolor="#666666"
     borderopacity="1"
     objecttolerance="10"
     gridtolerance="10"
     guidetolerance="10"
     inkscape:pageopacity="0"
     inkscape:pageshadow="2"
     inkscape:window-width="1920"
     inkscape:window-height="1138"
     id="namedview4645"
     showgrid="false"
     inkscape:zoom="2.2250293"
     inkscape:cx="125.26753"
     inkscape:cy="173.4566"
     inkscape:window-x="-8"
     inkscape:window-y="-8"
     inkscape:window-maximized="1"
     inkscape:current-layer="surface1" />
  <g
     id="surface1">
    <path
       style="fill:none;stroke-width:5;stroke-linecap:round;stroke-linejoin:round;stroke:rgb(0%,0%,0%);stroke-opacity:1;stroke-miterlimit:10;"
       d="M 683.554688 158.632812 L 1149.570312 587.617188 "
       transform="matrix(0.1,0,0,-0.1,0,225)"
       id="path4566" />
    <path
       style=" stroke:none;fill-rule:nonzero;fill:rgb(0%,0%,0%);fill-opacity:1;"
       d="M 62.839844 214.21875 L 69.71875 210.617188 L 66.996094 207.660156 L 62.839844 214.21875 "
       id="path4568" />
    <path
       style="fill:none;stroke-width:5;stroke-linecap:round;stroke-linejoin:round;stroke:rgb(0%,0%,0%);stroke-opacity:1;stroke-miterlimit:10;"
       d="M 628.398438 107.8125 L 697.1875 143.828125 L 669.960938 173.398438 Z M 628.398438 107.8125 "
       transform="matrix(0.1,0,0,-0.1,0,225)"
       id="path4570" />
    <path
       style="fill:none;stroke-width:5;stroke-linecap:round;stroke-linejoin:round;stroke:rgb(0%,0%,0%);stroke-opacity:1;stroke-miterlimit:10;"
       d="M 1149.570312 2037.851562 L 1149.570312 587.617188 "
       transform="matrix(0.1,0,0,-0.1,0,225)"
       id="path4574" />
    <path
       style=" stroke:none;fill-rule:nonzero;fill:rgb(0%,0%,0%);fill-opacity:1;"
       d="M 114.957031 13.714844 L 112.945312 21.214844 L 116.964844 21.214844 L 114.957031 13.714844 "
       id="path4576" />
    <path
       style="fill:none;stroke-width:5;stroke-linecap:round;stroke-linejoin:round;stroke:rgb(0%,0%,0%);stroke-opacity:1;stroke-miterlimit:10;"
       d="M 1149.570312 2112.851562 L 1129.453125 2037.851562 L 1169.648438 2037.851562 Z M 1149.570312 2112.851562 "
       transform="matrix(0.1,0,0,-0.1,0,225)"
       id="path4578" />
    <path
       style="fill:none;stroke-width:5;stroke-linecap:round;stroke-linejoin:round;stroke:rgb(0%,0%,0%);stroke-opacity:1;stroke-miterlimit:10;"
       d="M 2594.882812 467.851562 L 1149.570312 587.617188 "
       transform="matrix(0.1,0,0,-0.1,0,225)"
       id="path4582" />
    <path
       style=" stroke:none;fill-rule:nonzero;fill:rgb(0%,0%,0%);fill-opacity:1;"
       d="M 266.964844 178.835938 L 259.652344 176.210938 L 259.324219 180.21875 L 266.964844 178.835938 "
       id="path4584" />
    <path
       style="fill:none;stroke-width:5;stroke-linecap:round;stroke-linejoin:round;stroke:rgb(0%,0%,0%);stroke-opacity:1;stroke-miterlimit:10;"
       d="M 2669.648438 461.640625 L 2596.523438 487.890625 L 2593.242188 447.8125 Z M 2669.648438 461.640625 "
       transform="matrix(0.1,0,0,-0.1,0,225)"
       id="path4586" />
    <path
       style="fill:none;stroke-width:5;stroke-linecap:round;stroke-linejoin:round;stroke:rgb(0%,0%,0%);stroke-opacity:1;stroke-dasharray:39.4045,39.4045;stroke-dashoffset:39.4045;stroke-miterlimit:10;"
       d="M 2289.296875 541.914062 C 2289.296875 544.414062 2289.375 546.914062 2289.296875 549.414062 C 2289.179688 551.953125 2288.945312 554.453125 2288.632812 556.914062 C 2288.28125 559.414062 2287.851562 561.914062 2287.34375 564.414062 C 2286.796875 566.914062 2286.171875 569.375 2285.429688 571.835938 C 2284.6875 574.335938 2283.828125 576.796875 2282.890625 579.21875 C 2281.953125 581.71875 2280.898438 584.140625 2279.765625 586.5625 C 2278.632812 589.0625 2277.382812 591.484375 2276.054688 593.867188 C 2274.6875 596.328125 2273.242188 598.75 2271.71875 601.132812 C 2270.15625 603.59375 2268.515625 605.976562 2266.796875 608.359375 C 2265.039062 610.78125 2263.203125 613.164062 2261.289062 615.507812 C 2259.335938 617.929688 2257.304688 620.3125 2255.195312 622.617188 C 2253.046875 625 2250.859375 627.34375 2248.554688 629.648438 C 2246.210938 632.03125 2243.828125 634.375 2241.367188 636.640625 C 2238.828125 639.023438 2236.210938 641.328125 2233.59375 643.59375 C 2230.859375 645.9375 2228.085938 648.203125 2225.273438 650.429688 C 2222.34375 652.773438 2219.375 655 2216.40625 657.265625 C 2211.992188 660.351562 2207.695312 663.554688 2203.203125 666.5625 C 2198.554688 669.726562 2193.828125 672.773438 2189.0625 675.742188 C 2184.101562 678.789062 2179.0625 681.796875 2173.984375 684.6875 C 2168.710938 687.695312 2163.359375 690.625 2157.96875 693.476562 C 2152.382812 696.445312 2146.757812 699.296875 2141.09375 702.070312 C 2135.234375 704.960938 2129.296875 707.773438 2123.359375 710.507812 C 2117.1875 713.320312 2111.015625 716.054688 2104.765625 718.710938 C 2098.359375 721.484375 2091.875 724.140625 2085.351562 726.757812 C 2078.671875 729.453125 2071.953125 732.070312 2065.195312 734.609375 C 2058.203125 737.226562 2051.210938 739.765625 2044.21875 742.226562 C 2036.992188 744.765625 2029.765625 747.265625 2022.460938 749.6875 C 2015.039062 752.148438 2007.539062 754.570312 2000.039062 756.914062 C 1992.304688 759.296875 1984.570312 761.640625 1976.835938 763.90625 C 1968.90625 766.25 1960.9375 768.515625 1952.96875 770.742188 C 1944.765625 773.007812 1936.601562 775.195312 1928.398438 777.34375 C 1920 779.53125 1911.5625 781.601562 1903.125 783.710938 C 1894.53125 785.78125 1885.9375 787.890625 1877.304688 789.882812 C 1868.554688 791.914062 1859.765625 793.867188 1850.9375 795.78125 C 1841.992188 797.734375 1833.046875 799.609375 1824.101562 801.445312 C 1815 803.320312 1805.898438 805.117188 1796.757812 806.875 C 1787.5 808.671875 1778.242188 810.390625 1768.945312 812.070312 C 1759.53125 813.75 1750.117188 815.390625 1740.703125 816.992188 C 1731.171875 818.59375 1721.601562 820.15625 1712.03125 821.679688 C 1702.34375 823.203125 1692.65625 824.6875 1682.96875 826.132812 C 1673.125 827.578125 1663.320312 828.984375 1653.476562 830.3125 C 1643.554688 831.679688 1633.59375 833.007812 1623.632812 834.257812 C 1613.59375 835.546875 1603.515625 836.796875 1593.4375 837.96875 C 1583.28125 839.179688 1573.085938 840.3125 1562.890625 841.40625 C 1552.617188 842.539062 1542.34375 843.59375 1532.03125 844.648438 C 1521.640625 845.664062 1511.25 846.640625 1500.859375 847.578125 C 1490.351562 848.515625 1479.84375 849.414062 1469.335938 850.273438 C 1458.789062 851.132812 1448.164062 851.914062 1437.578125 852.734375 C 1426.914062 853.476562 1416.25 854.21875 1405.585938 854.921875 C 1394.882812 855.625 1384.179688 856.25 1373.476562 856.835938 C 1362.734375 857.460938 1352.03125 858.007812 1341.289062 858.515625 C 1330.507812 859.023438 1319.726562 859.492188 1308.984375 859.921875 C 1298.164062 860.351562 1287.382812 860.742188 1276.601562 861.054688 C 1265.78125 861.40625 1254.960938 861.679688 1244.140625 861.953125 C 1233.320312 862.1875 1222.5 862.421875 1211.640625 862.578125 C 1200.820312 862.734375 1189.960938 862.851562 1179.140625 862.929688 C 1168.28125 863.007812 1157.421875 863.046875 1146.601562 863.046875 C 1135.742188 863.046875 1124.882812 862.96875 1114.023438 862.890625 C 1103.203125 862.8125 1092.34375 862.65625 1081.484375 862.460938 C 1070.664062 862.304688 1059.804688 862.070312 1048.984375 861.796875 C 1038.125 861.523438 1027.304688 861.210938 1016.484375 860.859375 C 1005.664062 860.507812 994.84375 860.117188 984.0625 859.6875 C 973.242188 859.21875 962.460938 858.75 951.679688 858.203125 C 940.898438 857.695312 930.15625 857.070312 919.375 856.484375 C 908.671875 855.820312 897.96875 855.234375 887.265625 854.53125 C 876.601562 853.828125 865.976562 853.085938 855.351562 852.265625 C 844.804688 851.484375 834.257812 850.664062 823.75 849.804688 C 813.28125 848.90625 802.851562 848.007812 792.382812 847.03125 C 782.03125 846.09375 771.679688 845.078125 761.328125 844.0625 C 751.054688 843.007812 740.820312 841.953125 730.546875 840.820312 C 720.390625 839.6875 710.273438 838.515625 700.117188 837.304688 C 690.078125 836.09375 680.039062 834.84375 670 833.554688 C 660.078125 832.265625 650.15625 830.9375 640.234375 829.570312 C 630.429688 828.203125 620.625 826.796875 610.820312 825.3125 C 601.132812 823.867188 591.484375 822.382812 581.796875 820.820312 C 572.226562 819.296875 562.695312 817.734375 553.164062 816.09375 C 543.75 814.492188 534.335938 812.8125 524.960938 811.09375 C 515.703125 809.414062 506.445312 807.695312 497.1875 805.859375 C 488.046875 804.101562 478.945312 802.265625 469.84375 800.390625 C 460.898438 798.515625 451.953125 796.5625 443.007812 794.648438 C 434.257812 792.65625 425.46875 790.742188 416.71875 788.671875 C 408.125 786.679688 399.570312 784.609375 391.015625 782.5 C 382.695312 780.429688 374.335938 778.28125 366.015625 776.09375 C 357.851562 773.945312 349.726562 771.757812 341.640625 769.453125 C 333.710938 767.265625 325.820312 764.960938 317.929688 762.617188 C 310.234375 760.351562 302.578125 758.007812 294.921875 755.585938 C 287.460938 753.242188 280.039062 750.820312 272.617188 748.320312 C 265.390625 745.898438 258.203125 743.398438 251.015625 740.859375 C 244.0625 738.359375 237.109375 735.820312 230.195312 733.164062 C 223.476562 730.625 216.796875 728.007812 210.15625 725.3125 C 203.710938 722.695312 197.265625 720 190.898438 717.226562 C 184.6875 714.570312 178.554688 711.796875 172.421875 708.945312 C 166.523438 706.210938 160.664062 703.398438 154.804688 700.507812 C 149.179688 697.695312 143.59375 694.804688 138.046875 691.835938 C 132.734375 688.984375 127.421875 686.015625 122.1875 683.007812 C 117.148438 680.078125 112.226562 676.953125 107.226562 673.945312 C 103.320312 671.40625 99.375 668.945312 95.507812 666.328125 C 91.796875 663.789062 88.125 661.210938 84.492188 658.554688 C 81.015625 656.015625 77.578125 653.398438 74.21875 650.742188 C 70.9375 648.164062 67.773438 645.507812 64.609375 642.8125 C 61.601562 640.195312 58.671875 637.539062 55.78125 634.804688 C 53.007812 632.148438 50.3125 629.453125 47.695312 626.679688 C 45.15625 624.023438 42.695312 621.328125 40.3125 618.515625 C 38.046875 615.820312 35.859375 613.085938 33.75 610.273438 C 31.71875 607.539062 29.765625 604.765625 27.929688 601.914062 C 26.132812 599.179688 24.453125 596.40625 22.890625 593.515625 C 21.367188 590.78125 19.960938 587.929688 18.671875 585.078125 C 17.382812 582.265625 16.25 579.414062 15.234375 576.5625 C 14.21875 573.710938 13.359375 570.859375 12.617188 567.96875 C 11.875 565.117188 11.289062 562.226562 10.820312 559.335938 C 10.390625 556.445312 10.078125 553.554688 9.921875 550.625 C 9.726562 547.734375 9.84375 544.804688 9.84375 541.914062 "
       transform="matrix(0.1,0,0,-0.1,0,225)"
       id="path4590" />
    <path
       style="fill:none;stroke-width:5;stroke-linecap:round;stroke-linejoin:round;stroke:rgb(0%,0%,0%);stroke-opacity:1;stroke-miterlimit:10;"
       d="M 9.84375 541.914062 C 9.84375 541.328125 9.882812 540.742188 9.921875 540.15625 C 9.960938 539.570312 10 538.984375 10.039062 538.398438 C 10.078125 537.8125 10.117188 537.1875 10.195312 536.601562 C 10.234375 536.015625 10.3125 535.429688 10.390625 534.84375 C 10.46875 534.257812 10.546875 533.671875 10.625 533.085938 C 10.703125 532.5 10.78125 531.914062 10.898438 531.328125 C 10.976562 530.742188 11.09375 530.15625 11.171875 529.53125 C 11.289062 528.945312 11.40625 528.359375 11.523438 527.773438 C 11.640625 527.1875 11.757812 526.601562 11.875 526.015625 C 12.03125 525.390625 12.148438 524.804688 12.304688 524.21875 C 12.421875 523.632812 12.578125 523.046875 12.734375 522.460938 C 12.890625 521.875 13.046875 521.25 13.242188 520.664062 C 13.398438 520.078125 13.554688 519.492188 13.75 518.90625 C 13.90625 518.320312 14.101562 517.695312 14.296875 517.109375 C 14.492188 516.523438 14.6875 515.9375 14.882812 515.351562 C 15.078125 514.726562 15.3125 514.140625 15.507812 513.554688 C 16.992188 510 18.320312 506.40625 20 502.929688 C 21.757812 499.296875 23.710938 495.78125 25.820312 492.34375 C 28.007812 488.710938 30.390625 485.195312 32.890625 481.757812 C 35.546875 478.125 38.359375 474.648438 41.328125 471.210938 C 44.414062 467.617188 47.65625 464.140625 51.015625 460.742188 C 54.609375 457.1875 58.28125 453.710938 62.070312 450.351562 C 66.054688 446.757812 70.195312 443.320312 74.414062 440 C 78.867188 436.484375 83.4375 433.046875 88.085938 429.726562 C 93.007812 426.25 98.007812 422.851562 103.085938 419.609375 C 108.4375 416.132812 113.90625 412.773438 119.414062 409.53125 C 125.195312 406.132812 131.09375 402.8125 137.03125 399.609375 C 143.320312 396.210938 149.609375 392.96875 156.015625 389.804688 C 162.695312 386.484375 169.492188 383.28125 176.289062 380.15625 C 183.4375 376.875 190.664062 373.710938 197.890625 370.664062 C 205.507812 367.460938 213.125 364.335938 220.820312 361.328125 C 228.867188 358.203125 236.992188 355.234375 245.078125 352.1875 C 253.554688 349.21875 262.03125 346.132812 270.546875 343.28125 C 279.414062 340.273438 288.28125 337.382812 297.1875 334.609375 C 306.445312 331.679688 315.703125 328.90625 325 326.171875 C 334.648438 323.359375 344.296875 320.664062 353.945312 318.007812 C 363.945312 315.3125 373.945312 312.695312 383.984375 310.15625 C 394.335938 307.539062 404.6875 305.039062 415.078125 302.578125 C 425.78125 300.078125 436.484375 297.65625 447.226562 295.3125 C 458.242188 292.890625 469.296875 290.585938 480.351562 288.359375 C 491.71875 286.054688 503.085938 283.867188 514.492188 281.71875 C 526.171875 279.53125 537.851562 277.421875 549.570312 275.429688 C 561.523438 273.359375 573.515625 271.367188 585.546875 269.453125 C 597.8125 267.539062 610.078125 265.664062 622.382812 263.867188 C 634.921875 262.03125 647.5 260.3125 660.039062 258.632812 C 672.851562 256.953125 685.703125 255.3125 698.515625 253.789062 C 711.5625 252.226562 724.648438 250.742188 737.734375 249.296875 C 751.015625 247.890625 764.335938 246.601562 777.65625 245.234375 C 791.171875 244.023438 804.648438 242.734375 818.164062 241.5625 C 831.796875 240.429688 845.46875 239.335938 859.101562 238.359375 C 872.851562 237.34375 886.640625 236.40625 900.429688 235.546875 C 914.296875 234.6875 928.203125 233.867188 942.070312 233.164062 C 956.054688 232.421875 970.039062 231.796875 984.023438 231.210938 C 998.046875 230.664062 1012.109375 230.15625 1026.171875 229.726562 C 1040.273438 229.296875 1054.375 228.945312 1068.515625 228.671875 C 1082.65625 228.398438 1096.796875 228.164062 1110.9375 228.046875 C 1125.117188 227.890625 1139.257812 227.851562 1153.4375 227.851562 C 1167.617188 227.851562 1181.796875 227.96875 1195.9375 228.125 C 1210.117188 228.28125 1224.257812 228.515625 1238.398438 228.828125 C 1252.539062 229.140625 1266.640625 229.492188 1280.742188 229.960938 C 1294.804688 230.429688 1308.867188 230.9375 1322.96875 231.5625 C 1336.953125 232.148438 1350.9375 232.8125 1364.921875 233.554688 C 1378.828125 234.335938 1392.734375 235.15625 1406.640625 236.054688 C 1420.429688 236.914062 1434.21875 237.96875 1448.007812 238.945312 C 1461.640625 240.039062 1475.3125 241.054688 1488.945312 242.265625 C 1502.382812 243.4375 1515.820312 244.6875 1529.257812 245.976562 C 1542.5 247.304688 1555.703125 248.671875 1568.945312 250.117188 C 1581.914062 251.5625 1594.921875 253.085938 1607.890625 254.648438 C 1620.664062 256.210938 1633.398438 257.851562 1646.132812 259.570312 C 1658.632812 261.25 1671.132812 263.007812 1683.59375 264.882812 C 1695.820312 266.679688 1708.046875 268.554688 1720.234375 270.546875 C 1732.1875 272.460938 1744.101562 274.453125 1756.015625 276.5625 C 1767.695312 278.59375 1779.296875 280.703125 1790.9375 282.890625 C 1802.265625 285.039062 1813.59375 287.265625 1824.882812 289.609375 C 1835.898438 291.875 1846.875 294.179688 1857.851562 296.640625 C 1868.554688 298.984375 1879.21875 301.445312 1889.84375 303.945312 C 1900.195312 306.40625 1910.507812 308.984375 1920.820312 311.601562 C 1930.820312 314.140625 1940.78125 316.796875 1950.703125 319.53125 C 1960.351562 322.1875 1969.921875 324.921875 1979.53125 327.773438 C 1988.789062 330.507812 1997.96875 333.4375 2007.1875 336.25 C 2016.015625 339.179688 2024.882812 341.992188 2033.671875 345 C 2042.109375 347.890625 2050.507812 350.859375 2058.867188 353.945312 C 2066.875 356.914062 2074.84375 359.960938 2082.773438 363.085938 C 2090.351562 366.09375 2097.890625 369.21875 2105.390625 372.421875 C 2112.539062 375.507812 2119.648438 378.671875 2126.71875 381.953125 C 2133.4375 385.078125 2140.117188 388.28125 2146.71875 391.601562 C 2153.007812 394.765625 2159.257812 398.046875 2165.429688 401.40625 C 2171.289062 404.609375 2177.070312 407.929688 2182.8125 411.367188 C 2188.242188 414.609375 2193.59375 417.96875 2198.867188 421.445312 C 2203.867188 424.726562 2208.789062 428.085938 2213.632812 431.601562 C 2218.203125 434.921875 2222.695312 438.359375 2227.070312 441.875 C 2231.210938 445.234375 2235.273438 448.671875 2239.21875 452.265625 C 2242.890625 455.625 2246.523438 459.101562 2250 462.695312 C 2253.28125 466.09375 2256.445312 469.609375 2259.492188 473.203125 C 2262.34375 476.640625 2265.117188 480.15625 2267.695312 483.789062 C 2270.117188 487.226562 2272.265625 490.859375 2274.53125 494.375 C 2275.117188 495.390625 2275.703125 496.367188 2276.25 497.382812 C 2276.796875 498.359375 2277.304688 499.335938 2277.8125 500.351562 C 2278.320312 501.367188 2278.828125 502.34375 2279.296875 503.359375 C 2279.765625 504.335938 2280.234375 505.3125 2280.703125 506.328125 C 2281.132812 507.304688 2281.5625 508.320312 2281.953125 509.296875 C 2282.382812 510.273438 2282.773438 511.289062 2283.125 512.265625 C 2283.515625 513.28125 2283.867188 514.257812 2284.21875 515.273438 C 2284.53125 516.25 2284.882812 517.226562 2285.195312 518.242188 C 2285.46875 519.21875 2285.78125 520.195312 2286.054688 521.210938 C 2286.328125 522.1875 2286.5625 523.164062 2286.796875 524.179688 C 2287.03125 525.15625 2287.265625 526.132812 2287.460938 527.109375 C 2287.695312 528.125 2287.851562 529.101562 2288.046875 530.078125 C 2288.203125 531.054688 2288.359375 532.070312 2288.515625 533.046875 C 2288.632812 534.023438 2288.75 535 2288.867188 536.015625 C 2288.984375 536.992188 2289.0625 537.96875 2289.140625 538.945312 C 2289.21875 539.921875 2289.257812 540.898438 2289.296875 541.914062 "
       transform="matrix(0.1,0,0,-0.1,0,225)"
       id="path4592" />
    <path
       style="fill:none;stroke-width:5;stroke-linecap:round;stroke-linejoin:round;stroke:rgb(0%,0%,0%);stroke-opacity:1;stroke-miterlimit:10;"
       d="M 1149.570312 1716.445312 L 1149.570312 1716.445312 "
       transform="matrix(0.1,0,0,-0.1,0,225)"
       id="path4594" />
    <path
       style="fill:none;stroke-width:5;stroke-linecap:round;stroke-linejoin:round;stroke:rgb(0%,0%,0%);stroke-opacity:1;stroke-dasharray:40,40;stroke-dashoffset:40;stroke-miterlimit:10;"
       d="M 2289.296875 541.914062 L 2289.296875 541.914062 "
       transform="matrix(0.1,0,0,-0.1,0,225)"
       id="path4596" />
    <path
       style="fill:none;stroke-width:5;stroke-linecap:round;stroke-linejoin:round;stroke:rgb(0%,0%,0%);stroke-opacity:1;stroke-dasharray:40,40;stroke-dashoffset:40;stroke-miterlimit:10;"
       d="M 9.84375 541.914062 L 9.84375 541.914062 "
       transform="matrix(0.1,0,0,-0.1,0,225)"
       id="path4598" />
    <path
       style="fill:none;stroke-width:5;stroke-linecap:round;stroke-linejoin:round;stroke:rgb(0%,0%,0%);stroke-opacity:1;stroke-miterlimit:10;"
       d="M 2289.296875 541.914062 C 2288.828125 579.804688 2290.3125 617.773438 2287.8125 655.585938 C 2285.351562 692.96875 2280.898438 730.3125 2274.53125 767.226562 C 2268.203125 803.945312 2259.882812 840.351562 2249.804688 876.210938 C 2239.765625 911.914062 2227.851562 947.1875 2214.21875 981.71875 C 2200.625 1016.210938 2185.195312 1050.078125 2168.242188 1083.046875 C 2151.210938 1116.054688 2132.539062 1148.28125 2112.382812 1179.492188 C 2092.1875 1210.742188 2070.390625 1241.09375 2047.265625 1270.273438 C 2024.023438 1299.570312 1999.375 1327.773438 1973.4375 1354.6875 C 1947.382812 1381.757812 1920.039062 1407.578125 1891.5625 1432.03125 C 1862.929688 1456.5625 1833.085938 1479.804688 1802.265625 1501.523438 C 1771.210938 1523.359375 1739.140625 1543.789062 1706.210938 1562.539062 C 1673.046875 1581.40625 1638.945312 1598.710938 1604.101562 1614.296875 C 1568.984375 1630 1533.085938 1644.023438 1496.640625 1656.210938 C 1459.84375 1668.515625 1422.382812 1679.0625 1384.570312 1687.617188 C 1346.289062 1696.289062 1307.578125 1703.125 1268.632812 1707.890625 C 1229.140625 1712.734375 1189.257812 1713.59375 1149.570312 1716.445312 "
       transform="matrix(0.1,0,0,-0.1,0,225)"
       id="path4600" />
    <path
       style="fill:none;stroke-width:5;stroke-linecap:round;stroke-linejoin:round;stroke:rgb(0%,0%,0%);stroke-opacity:1;stroke-miterlimit:10;"
       d="M 9.84375 541.914062 C 10.3125 579.804688 8.828125 617.773438 11.289062 655.585938 C 13.75 692.96875 18.242188 730.3125 24.609375 767.265625 C 30.9375 803.945312 39.21875 840.351562 49.296875 876.210938 C 59.335938 911.953125 71.289062 947.1875 84.921875 981.71875 C 98.515625 1016.210938 113.90625 1050.078125 130.898438 1083.046875 C 147.890625 1116.09375 166.5625 1148.28125 186.757812 1179.492188 C 206.953125 1210.78125 228.710938 1241.09375 251.875 1270.273438 C 275.117188 1299.570312 299.765625 1327.773438 325.703125 1354.6875 C 351.71875 1381.757812 379.0625 1407.578125 407.578125 1432.03125 C 436.210938 1456.601562 466.015625 1479.804688 496.875 1501.523438 C 527.890625 1523.359375 559.960938 1543.789062 592.929688 1562.539062 C 626.09375 1581.40625 660.195312 1598.710938 695.039062 1614.296875 C 730.15625 1630 766.015625 1644.0625 802.5 1656.210938 C 839.296875 1668.515625 876.71875 1679.0625 914.570312 1687.617188 C 952.8125 1696.289062 991.5625 1703.125 1030.507812 1707.890625 C 1070 1712.734375 1109.882812 1713.59375 1149.570312 1716.445312 "
       transform="matrix(0.1,0,0,-0.1,0,225)"
       id="path4602" />
    <path
       style="fill:none;stroke-width:5;stroke-linecap:round;stroke-linejoin:round;stroke:rgb(0%,0%,0%);stroke-opacity:1;stroke-miterlimit:10;"
       d="M 446.054688 645.898438 L 446.054688 645.898438 "
       transform="matrix(0.1,0,0,-0.1,0,225)"
       id="path4604" />
    <path
       style="fill:none;stroke-width:5;stroke-linecap:round;stroke-linejoin:round;stroke:#000000;stroke-opacity:1;stroke-miterlimit:10"
       d="M 1594.765625 1179.765625 L 1149.570312 587.617188 "
       transform="matrix(0.1,0,0,-0.1,0,225)"
       id="path4610" />
    <path
       style=" stroke:none;fill-rule:nonzero;fill:rgb(100%,50%,0%);fill-opacity:1;"
       d="M 163.980469 101.027344 L 157.867188 105.816406 L 161.082031 108.230469 L 163.980469 101.027344 "
       id="path4612" />
    <path
       style="fill:#000000;stroke-width:5.00250007;stroke-linecap:round;stroke-linejoin:round;stroke:#000000;stroke-opacity:1;stroke-miterlimit:10;stroke-dasharray:none;fill-opacity:1"
       d="M 1639.804688 1239.726562 L 1578.671875 1191.835938 L 1610.820312 1167.695312 Z M 1639.804688 1239.726562 "
       transform="matrix(0.1,0,0,-0.1,0,225)"
       id="path4614" />
    <path
       style="fill:none;stroke-width:5.00000024;stroke-linecap:round;stroke-linejoin:round;stroke:#000000;stroke-opacity:1;stroke-dasharray:none;stroke-miterlimit:10"
       d="M 1149.570312 1716.445312 C 1171.796875 1709.53125 1194.648438 1704.414062 1216.289062 1695.742188 C 1239.101562 1686.523438 1261.25 1675.46875 1282.5 1663.007812 C 1305.195312 1649.6875 1326.953125 1634.726562 1347.773438 1618.59375 C 1370.039062 1601.289062 1391.289062 1582.617188 1411.523438 1562.929688 C 1433.164062 1541.875 1453.671875 1519.648438 1473.164062 1496.5625 C 1493.945312 1471.992188 1513.59375 1446.40625 1532.1875 1420.117188 C 1551.875 1392.226562 1570.46875 1363.554688 1587.929688 1334.21875 C 1606.367188 1303.359375 1623.632812 1271.796875 1639.804688 1239.726562 C 1656.757812 1206.171875 1672.539062 1172.03125 1687.265625 1137.421875 C 1702.5 1101.5625 1716.601562 1065.15625 1729.609375 1028.398438 C 1743.007812 990.507812 1755.234375 952.1875 1766.328125 913.554688 C 1777.65625 874.0625 1787.851562 834.21875 1796.835938 794.140625 C 1805.976562 753.4375 1813.945312 712.421875 1820.625 671.25 C 1827.382812 629.726562 1832.96875 587.96875 1837.226562 546.132812 C 1841.484375 504.21875 1844.53125 462.148438 1846.210938 420.039062 C 1847.851562 378.164062 1846.875 336.210938 1847.226562 294.296875 "
       transform="matrix(0.1,0,0,-0.1,0,225)"
       id="path4618" />
    <path
       style="fill:none;stroke-width:5.00250007;stroke-linecap:round;stroke-linejoin:round;stroke:#000000;stroke-opacity:1;stroke-dasharray:15.00750013,15.00750013;stroke-miterlimit:10;stroke-dashoffset:0"
       d="M 1149.570312 587.617188 L 2008.164062 226.640625 "
       transform="matrix(0.1,0,0,-0.1,0,225)"
       id="path4620" />
    <path
       style="fill:none;stroke-width:5;stroke-linecap:round;stroke-linejoin:round;stroke:#000000;stroke-opacity:1;stroke-miterlimit:10"
       d="M 2081.09375 244.140625 C 2089.960938 246.40625 2098.789062 248.75 2107.617188 251.171875 C 2123.046875 255.351562 2138.476562 259.726562 2153.789062 264.335938 C 2168.4375 268.710938 2183.046875 273.28125 2197.539062 278.046875 C 2211.367188 282.617188 2225.117188 287.34375 2238.789062 292.34375 C 2251.71875 297.03125 2264.609375 301.953125 2277.382812 307.070312 C 2289.453125 311.953125 2301.484375 316.992188 2313.359375 322.304688 C 2324.53125 327.265625 2335.664062 332.5 2346.640625 337.929688 C 2356.914062 343.046875 2367.109375 348.398438 2377.148438 353.984375 C 2386.484375 359.21875 2395.742188 364.6875 2404.804688 370.390625 C 2413.28125 375.742188 2421.5625 381.289062 2429.6875 387.148438 C 2437.1875 392.578125 2444.53125 398.242188 2451.640625 404.179688 C 2458.242188 409.6875 2464.648438 415.46875 2470.742188 421.523438 C 2476.40625 427.109375 2481.796875 432.96875 2486.875 439.0625 C 2491.601562 444.765625 2496.054688 450.703125 2500.078125 456.875 C 2503.867188 462.65625 2506.914062 468.867188 2510.3125 474.84375 "
       transform="matrix(0.1,0,0,-0.1,0,225)"
       id="path4622" />
    <path
       style=" stroke:none;fill-rule:nonzero;fill:rgb(0%,0%,100%);fill-opacity:1;"
       d="M 200.816406 202.339844 C 202.558594 202.394531 204.296875 202.46875 206.039062 202.503906 C 206.898438 202.523438 207.757812 202.535156 208.613281 202.542969 L 207.605469 198.636719 C 206.878906 199.046875 206.148438 199.457031 205.417969 199.863281 C 203.894531 200.703125 202.351562 201.511719 200.816406 202.339844 "
       id="path4624" />
    <path
       style="fill:#000000;stroke-width:5;stroke-linecap:round;stroke-linejoin:round;stroke:#000000;stroke-opacity:1;stroke-miterlimit:10;fill-opacity:1"
       d="M 2008.164062 226.601562 C 2025.585938 226.054688 2042.96875 225.3125 2060.390625 224.960938 C 2068.984375 224.765625 2077.578125 224.648438 2086.132812 224.570312 L 2076.054688 263.632812 C 2068.789062 259.53125 2061.484375 255.429688 2054.179688 251.367188 C 2038.945312 242.96875 2023.515625 234.882812 2008.164062 226.601562 Z M 2008.164062 226.601562 "
       transform="matrix(0.1,0,0,-0.1,0,225)"
       id="path4626" />
    <path
       style="fill:none;stroke-width:5.00250007;stroke-linecap:round;stroke-linejoin:round;stroke:#000000;stroke-opacity:1;stroke-miterlimit:10;stroke-dasharray:none"
       d="M 1428.789062 1072.070312 C 1423.984375 1080.3125 1419.101562 1088.4375 1414.0625 1096.523438 C 1408.242188 1105.820312 1402.304688 1115.039062 1396.132812 1124.140625 C 1390.15625 1132.96875 1384.023438 1141.71875 1377.695312 1150.3125 C 1371.523438 1158.710938 1365.195312 1166.953125 1358.710938 1175.078125 C 1352.382812 1182.96875 1345.9375 1190.703125 1339.257812 1198.28125 C 1332.8125 1205.625 1326.171875 1212.851562 1319.375 1219.921875 C 1312.773438 1226.757812 1306.054688 1233.4375 1299.101562 1239.921875 C 1292.382812 1246.210938 1285.546875 1252.34375 1278.476562 1258.242188 C 1271.679688 1263.984375 1264.6875 1269.53125 1257.578125 1274.84375 C 1250.625 1280 1243.554688 1284.960938 1236.367188 1289.648438 C 1229.335938 1294.21875 1222.1875 1298.59375 1214.921875 1302.65625 C 1207.851562 1306.640625 1200.625 1310.351562 1193.28125 1313.789062 C 1186.132812 1317.148438 1178.867188 1320.234375 1171.484375 1323.046875 C 1164.296875 1325.78125 1156.875 1327.890625 1149.570312 1330.351562 "
       transform="matrix(0.1,0,0,-0.1,0,225)"
       id="path4630" />
    <path
       style=" stroke:none;fill-rule:nonzero;fill:rgb(0%,0%,100%);fill-opacity:1;"
       d="M 146.40625 124.410156 C 146.164062 123.257812 145.941406 122.101562 145.683594 120.957031 C 145.425781 119.835938 145.152344 118.714844 144.859375 117.601562 C 144.789062 117.324219 144.714844 117.046875 144.636719 116.769531 L 141.132812 118.808594 C 141.304688 118.972656 141.472656 119.140625 141.640625 119.308594 C 142.453125 120.121094 143.253906 120.953125 144.039062 121.792969 C 144.84375 122.652344 145.617188 123.535156 146.40625 124.410156 "
       id="path4632" />
    <path
       style="fill:#000000;stroke-width:5.00250007;stroke-linecap:round;stroke-linejoin:round;stroke:#000000;stroke-opacity:1;stroke-miterlimit:10;stroke-dasharray:none;fill-opacity:1"
       d="M 1464.0625 1005.898438 C 1461.640625 1017.421875 1459.414062 1028.984375 1456.835938 1040.429688 C 1454.257812 1051.640625 1451.523438 1062.851562 1448.59375 1073.984375 C 1447.890625 1076.757812 1447.148438 1079.53125 1446.367188 1082.304688 L 1411.328125 1061.914062 C 1413.046875 1060.273438 1414.726562 1058.59375 1416.40625 1056.914062 C 1424.53125 1048.789062 1432.539062 1040.46875 1440.390625 1032.070312 C 1448.4375 1023.476562 1456.171875 1014.648438 1464.0625 1005.898438 Z M 1464.0625 1005.898438 "
       transform="matrix(0.1,0,0,-0.1,0,225)"
       id="path4634" />
    <path
       style="fill:none;stroke-width:30;stroke-linecap:round;stroke-linejoin:round;stroke:rgb(0%,0%,0%);stroke-opacity:1;stroke-miterlimit:10;"
       d="M 1149.570312 587.617188 L 1149.570312 587.617188 "
       transform="matrix(0.1,0,0,-0.1,0,225)"
       id="path4638" />
    <text
       xml:space="preserve"
       style="font-style:normal;font-weight:normal;font-size:12px;line-height:1000%;font-family:sans-serif;letter-spacing:0px;word-spacing:0px;fill:#000000;fill-opacity:1;stroke:none;stroke-width:0.75px;stroke-linecap:butt;stroke-linejoin:miter;stroke-opacity:1"
       x="224.86424"
       y="204.78966"
       id="text5196"><tspan
         sodipodi:role="line"
         id="tspan5194"
         x="224.86424"
         y="204.78966"
         style="stroke-width:0.75px">$\varphi$</tspan></text>
    <text
       xml:space="preserve"
       style="font-style:normal;font-weight:normal;font-size:12px;line-height:1000%;font-family:sans-serif;letter-spacing:0px;word-spacing:0px;fill:#000000;fill-opacity:1;stroke:none;stroke-width:0.75px;stroke-linecap:butt;stroke-linejoin:miter;stroke-opacity:1"
       x="123.4872"
       y="114.77673"
       id="text5200"><tspan
         sodipodi:role="line"
         id="tspan5198"
         x="123.4872"
         y="114.77673"
         style="stroke-width:0.75px">$\theta$</tspan></text>
    <text
       xml:space="preserve"
       style="font-style:normal;font-weight:normal;font-size:12px;line-height:1000%;font-family:sans-serif;letter-spacing:0px;word-spacing:0px;fill:#000000;fill-opacity:1;stroke:none;stroke-width:0.75px;stroke-linecap:butt;stroke-linejoin:miter;stroke-opacity:1"
       x="48.943096"
       y="220.31462"
       id="text5208"><tspan
         sodipodi:role="line"
         id="tspan5206"
         x="48.943096"
         y="220.31462"
         style="stroke-width:0.75px">$Z$</tspan></text>
    <text
       xml:space="preserve"
       style="font-style:normal;font-weight:normal;font-size:12px;line-height:1000%;font-family:sans-serif;letter-spacing:0px;word-spacing:0px;fill:#000000;fill-opacity:1;stroke:none;stroke-width:0.75px;stroke-linecap:butt;stroke-linejoin:miter;stroke-opacity:1"
       x="269.17059"
       y="183.69157"
       id="text5212"><tspan
         sodipodi:role="line"
         id="tspan5210"
         x="269.17059"
         y="183.69157"
         style="stroke-width:0.75px">$X$</tspan></text>
    <text
       xml:space="preserve"
       style="font-style:normal;font-weight:normal;font-size:12px;line-height:1000%;font-family:sans-serif;letter-spacing:0px;word-spacing:0px;fill:#000000;fill-opacity:1;stroke:none;stroke-width:0.75px;stroke-linecap:butt;stroke-linejoin:miter;stroke-opacity:1"
       x="111.18418"
       y="9.2725067"
       id="text5216"><tspan
         sodipodi:role="line"
         id="tspan5214"
         x="111.18418"
         y="9.2725067"
         style="stroke-width:0.75px">$Y$</tspan></text>
    <text
       xml:space="preserve"
       style="font-style:normal;font-weight:normal;font-size:12px;line-height:1000%;font-family:sans-serif;letter-spacing:0px;word-spacing:0px;fill:#000000;fill-opacity:1;stroke:none;stroke-width:0.75px;stroke-linecap:butt;stroke-linejoin:miter;stroke-opacity:1"
       x="165.35175"
       y="99.945473"
       id="text5220"><tspan
         sodipodi:role="line"
         id="tspan5218"
         x="165.35175"
         y="99.945473"
         style="stroke-width:0.75px">$x$</tspan></text>
  </g>
</svg>
