<?xml version="1.0" encoding="UTF-8" standalone="no"?>
<!-- Created with Inkscape (http://www.inkscape.org/) -->
<svg
   xmlns:dc="http://purl.org/dc/elements/1.1/"
   xmlns:cc="http://creativecommons.org/ns#"
   xmlns:rdf="http://www.w3.org/1999/02/22-rdf-syntax-ns#"
   xmlns:svg="http://www.w3.org/2000/svg"
   xmlns="http://www.w3.org/2000/svg"
   xmlns:sodipodi="http://sodipodi.sourceforge.net/DTD/sodipodi-0.dtd"
   xmlns:inkscape="http://www.inkscape.org/namespaces/inkscape"
   width="210mm"
   height="297mm"
   id="svg2"
   sodipodi:version="0.32"
   inkscape:version="0.46"
   sodipodi:docname="Spaces.svg"
   inkscape:output_extension="org.inkscape.output.svg.inkscape">
  <defs
     id="defs4">
    <marker
       inkscape:stockid="Arrow1Lend"
       orient="auto"
       refY="0.0"
       refX="0.0"
       id="Arrow1Lend"
       style="overflow:visible;">
      <path
         id="path3219"
         d="M 0.0,0.0 L 5.0,-5.0 L -12.5,0.0 L 5.0,5.0 L 0.0,0.0 z "
         style="fill-rule:evenodd;stroke:#000000;stroke-width:1.0pt;marker-start:none;"
         transform="scale(0.8) rotate(180) translate(12.5,0)" />
    </marker>
    <inkscape:perspective
       sodipodi:type="inkscape:persp3d"
       inkscape:vp_x="0 : 526.18109 : 1"
       inkscape:vp_y="0 : 1000 : 0"
       inkscape:vp_z="744.09448 : 526.18109 : 1"
       inkscape:persp3d-origin="372.04724 : 350.78739 : 1"
       id="perspective10" />
  </defs>
  <sodipodi:namedview
     id="base"
     pagecolor="#ffffff"
     bordercolor="#666666"
     borderopacity="1.0"
     inkscape:pageopacity="0.0"
     inkscape:pageshadow="2"
     inkscape:zoom="3.62052"
     inkscape:cx="666.80187"
     inkscape:cy="957.09652"
     inkscape:document-units="px"
     inkscape:current-layer="layer1"
     showgrid="true"
     gridtolerance="5"
     inkscape:snap-intersection-line-segments="true"
     inkscape:window-width="1439"
     inkscape:window-height="850"
     inkscape:window-x="0"
     inkscape:window-y="1200">
    <inkscape:grid
       type="xygrid"
       id="grid3155"
       units="px"
       visible="true"
       enabled="true"
       spacingx="5px"
       spacingy="5px" />
  </sodipodi:namedview>
  <metadata
     id="metadata7">
    <rdf:RDF>
      <cc:Work
         rdf:about="">
        <dc:format>image/svg+xml</dc:format>
        <dc:type
           rdf:resource="http://purl.org/dc/dcmitype/StillImage" />
      </cc:Work>
    </rdf:RDF>
  </metadata>
  <g
     inkscape:label="Ebene 1"
     inkscape:groupmode="layer"
     id="layer1">
    <rect
       style="opacity:1;fill:none;fill-opacity:1;stroke:#010000;stroke-width:1.50356138;stroke-linecap:butt;stroke-linejoin:round;stroke-miterlimit:4;stroke-dasharray:none;stroke-opacity:1"
       id="rect2383"
       width="149.68817"
       height="148.74457"
       x="25.43891"
       y="28.744284" />
    <path
       style="fill:none;fill-rule:evenodd;stroke:#000000;stroke-width:1px;stroke-linecap:butt;stroke-linejoin:miter;stroke-opacity:1"
       d="M 100,29.462045 L 100,177.36218"
       id="path3159"
       sodipodi:nodetypes="cc" />
    <path
       style="fill:none;fill-rule:evenodd;stroke:#000000;stroke-width:1px;stroke-linecap:butt;stroke-linejoin:miter;stroke-opacity:1"
       d="M 25,102.36218 L 175,102.36218"
       id="path3161" />
    <path
       sodipodi:type="arc"
       style="opacity:1;fill:#00d600;fill-opacity:1;stroke:none;stroke-width:1.79999995;stroke-linecap:butt;stroke-linejoin:round;stroke-miterlimit:4;stroke-dasharray:none;stroke-opacity:1"
       id="path3163"
       sodipodi:cx="100"
       sodipodi:cy="102.36218"
       sodipodi:rx="15"
       sodipodi:ry="15"
       d="M 115,102.36218 A 15,15 0 1 1 85,102.36218 A 15,15 0 1 1 115,102.36218 z" />
    <rect
       style="opacity:1;fill:none;fill-opacity:1;stroke:#010000;stroke-width:1.50356138;stroke-linecap:butt;stroke-linejoin:round;stroke-miterlimit:4;stroke-dasharray:none;stroke-opacity:1"
       id="rect3185"
       width="149.68817"
       height="148.74457"
       x="200.31183"
       y="28.617609" />
    <path
       style="fill:none;fill-rule:evenodd;stroke:#000000;stroke-width:1px;stroke-linecap:butt;stroke-linejoin:miter;stroke-opacity:1"
       d="M 274.87292,29.335371 L 274.87292,177.23551"
       id="path3187"
       sodipodi:nodetypes="cc" />
    <path
       style="fill:none;fill-rule:evenodd;stroke:#000000;stroke-width:1px;stroke-linecap:butt;stroke-linejoin:miter;stroke-opacity:1"
       d="M 199.87293,102.23551 L 349.87292,102.23551"
       id="path3189" />
    <path
       sodipodi:type="arc"
       style="opacity:1;fill:#00d600;fill-opacity:1;stroke:none;stroke-width:1.79999995;stroke-linecap:butt;stroke-linejoin:round;stroke-miterlimit:4;stroke-dasharray:none;stroke-opacity:1"
       id="path3191"
       sodipodi:cx="100"
       sodipodi:cy="102.36218"
       sodipodi:rx="15"
       sodipodi:ry="15"
       d="M 115,102.36218 A 15,15 0 1 1 85,102.36218 A 15,15 0 1 1 115,102.36218 z"
       transform="matrix(0.5,0,0,0.5,260,13.681091)" />
    <path
       sodipodi:type="arc"
       style="opacity:1;fill:#00d600;fill-opacity:1;stroke:none;stroke-width:1.79999995;stroke-linecap:butt;stroke-linejoin:round;stroke-miterlimit:4;stroke-dasharray:none;stroke-opacity:1"
       id="path3193"
       sodipodi:cx="100"
       sodipodi:cy="102.36218"
       sodipodi:rx="15"
       sodipodi:ry="15"
       d="M 115,102.36218 A 15,15 0 1 1 85,102.36218 A 15,15 0 1 1 115,102.36218 z"
       transform="matrix(0.8333333,0,0,0.8333333,209.16667,29.560364)" />
    <path
       sodipodi:type="arc"
       style="opacity:1;fill:#00d600;fill-opacity:1;stroke:none;stroke-width:1.79999995;stroke-linecap:butt;stroke-linejoin:round;stroke-miterlimit:4;stroke-dasharray:none;stroke-opacity:1"
       id="path3195"
       sodipodi:cx="100"
       sodipodi:cy="102.36218"
       sodipodi:rx="15"
       sodipodi:ry="15"
       d="M 115,102.36218 A 15,15 0 1 1 85,102.36218 A 15,15 0 1 1 115,102.36218 z"
       transform="matrix(0.6666667,0,0,0.6666667,198.33333,69.120725)" />
    <rect
       style="opacity:1;fill:none;fill-opacity:1;stroke:#010000;stroke-width:1.50356138;stroke-linecap:butt;stroke-linejoin:round;stroke-miterlimit:4;stroke-dasharray:none;stroke-opacity:1"
       id="rect3197"
       width="149.68817"
       height="148.74457"
       x="375.4389"
       y="28.744286" />
    <path
       style="fill:none;fill-rule:evenodd;stroke:#000000;stroke-width:1px;stroke-linecap:butt;stroke-linejoin:miter;stroke-opacity:1"
       d="M 450,29.462048 L 450,177.36218"
       id="path3199"
       sodipodi:nodetypes="cc" />
    <path
       style="fill:none;fill-rule:evenodd;stroke:#000000;stroke-width:1px;stroke-linecap:butt;stroke-linejoin:miter;stroke-opacity:1"
       d="M 375.00001,102.36218 L 525,102.36218"
       id="path3201" />
    <path
       sodipodi:type="arc"
       style="opacity:1;fill:#00d600;fill-opacity:1;stroke:none;stroke-width:1.79999995;stroke-linecap:butt;stroke-linejoin:round;stroke-miterlimit:4;stroke-dasharray:none;stroke-opacity:1"
       id="path3203"
       sodipodi:cx="100"
       sodipodi:cy="102.36218"
       sodipodi:rx="15"
       sodipodi:ry="15"
       d="M 115,102.36218 A 15,15 0 1 1 85,102.36218 A 15,15 0 1 1 115,102.36218 z"
       transform="matrix(0.5,0,0,0.5,435,13.681091)" />
    <path
       sodipodi:type="arc"
       style="opacity:1;fill:#00d600;fill-opacity:1;stroke:none;stroke-width:1.79999995;stroke-linecap:butt;stroke-linejoin:round;stroke-miterlimit:4;stroke-dasharray:none;stroke-opacity:1"
       id="path3205"
       sodipodi:cx="100"
       sodipodi:cy="102.36218"
       sodipodi:rx="15"
       sodipodi:ry="15"
       d="M 115,102.36218 A 15,15 0 1 1 85,102.36218 A 15,15 0 1 1 115,102.36218 z"
       transform="matrix(0.8333333,0,0,0.8333333,384.16667,29.560364)" />
    <path
       sodipodi:type="arc"
       style="opacity:1;fill:#00d600;fill-opacity:1;stroke:none;stroke-width:1.79999995;stroke-linecap:butt;stroke-linejoin:round;stroke-miterlimit:4;stroke-dasharray:none;stroke-opacity:1"
       id="path3207"
       sodipodi:cx="100"
       sodipodi:cy="102.36218"
       sodipodi:rx="15"
       sodipodi:ry="15"
       d="M 115,102.36218 A 15,15 0 1 1 85,102.36218 A 15,15 0 1 1 115,102.36218 z"
       transform="matrix(0.6666667,0,0,0.6666667,373.33333,69.120725)" />
    <path
       style="fill:none;fill-rule:evenodd;stroke:#fe0000;stroke-width:1px;stroke-linecap:butt;stroke-linejoin:miter;stroke-opacity:1"
       d="M 425,152.36218 L 420,67.362183 L 500,112.36218"
       id="path3209"
       sodipodi:nodetypes="ccc" />
    <path
       style="fill:none;fill-rule:evenodd;stroke:#000000;stroke-width:0.59999999999999998;stroke-linecap:butt;stroke-linejoin:miter;stroke-opacity:1;stroke-miterlimit:1;stroke-dasharray:0.59999999999999998, 0.59999999999999998;stroke-dashoffset:0;marker-end:url(#Arrow1Lend);fill-opacity:1"
       d="M 420,67.362183 L 460,132.36218"
       id="path3211"
       sodipodi:nodetypes="cc" />
    <path
       sodipodi:type="arc"
       style="opacity:1;fill:#ff0000;fill-opacity:1;stroke:none;stroke-width:0.60000001999999997;stroke-linecap:butt;stroke-linejoin:round;stroke-miterlimit:1;stroke-dasharray:0.59999999999999998, 0.59999999999999998;stroke-dashoffset:0;stroke-opacity:1"
       id="path3991"
       sodipodi:cx="420"
       sodipodi:cy="67.362183"
       sodipodi:rx="5"
       sodipodi:ry="5"
       d="M 425,67.362183 A 5,5 0 1 1 415,67.362183 A 5,5 0 1 1 425,67.362183 z" />
    <rect
       style="opacity:1;fill:none;fill-opacity:1;stroke:#010000;stroke-width:1.50356138;stroke-linecap:butt;stroke-linejoin:round;stroke-miterlimit:4;stroke-dasharray:none;stroke-opacity:1"
       id="rect4019"
       width="149.68817"
       height="148.74457"
       x="550.4389"
       y="28.744287" />
    <path
       style="fill:none;fill-rule:evenodd;stroke:#000000;stroke-width:1px;stroke-linecap:butt;stroke-linejoin:miter;stroke-opacity:1"
       d="M 624.99999,29.462053 L 624.99999,177.36218"
       id="path4021"
       sodipodi:nodetypes="cc" />
    <path
       style="fill:none;fill-rule:evenodd;stroke:#000000;stroke-width:1px;stroke-linecap:butt;stroke-linejoin:miter;stroke-opacity:1"
       d="M 550.00001,127.36218 L 700,127.36218"
       id="path4023" />
    <path
       sodipodi:type="arc"
       style="fill:#00d600;fill-opacity:1;stroke:none;stroke-width:1.79999995;stroke-linecap:butt;stroke-linejoin:round;stroke-miterlimit:4;stroke-dasharray:none;stroke-opacity:1"
       id="path4045"
       sodipodi:cx="100"
       sodipodi:cy="102.36218"
       sodipodi:rx="15"
       sodipodi:ry="15"
       d="M 115,102.36218 A 15,15 0 1 1 85,102.36218 A 15,15 0 1 1 115,102.36218 z"
       transform="matrix(-0.4257781,-0.2621315,0.2621315,-0.4257781,584.08365,165.35794)" />
    <path
       sodipodi:type="arc"
       style="fill:#00d600;fill-opacity:1;stroke:none;stroke-width:1.79999995;stroke-linecap:butt;stroke-linejoin:round;stroke-miterlimit:4;stroke-dasharray:none;stroke-opacity:1"
       id="path4047"
       sodipodi:cx="100"
       sodipodi:cy="102.36218"
       sodipodi:rx="15"
       sodipodi:ry="15"
       d="M 115,102.36218 A 15,15 0 1 1 85,102.36218 A 15,15 0 1 1 115,102.36218 z"
       transform="matrix(-0.7096302,-0.4368859,0.4368859,-0.7096302,635.69601,178.48588)" />
    <path
       sodipodi:type="arc"
       style="fill:#00d600;fill-opacity:1;stroke:none;stroke-width:1.79999995;stroke-linecap:butt;stroke-linejoin:round;stroke-miterlimit:4;stroke-dasharray:none;stroke-opacity:1"
       id="path4049"
       sodipodi:cx="100"
       sodipodi:cy="102.36218"
       sodipodi:rx="15"
       sodipodi:ry="15"
       d="M 115,102.36218 A 15,15 0 1 1 85,102.36218 A 15,15 0 1 1 115,102.36218 z"
       transform="matrix(-0.5677042,-0.3495088,0.3495088,-0.5677042,665.66124,150.47753)" />
    <path
       style="fill:none;fill-rule:evenodd;stroke:#fe0000;stroke-width:0.99999994px;stroke-linecap:butt;stroke-linejoin:miter;stroke-opacity:1"
       d="M 667.42924,47.362183 L 625.00001,127.50941 L 580.46734,47.248335"
       id="path4051"
       sodipodi:nodetypes="ccc" />
    <path
       style="fill:none;fill-opacity:1;fill-rule:evenodd;stroke:#000000;stroke-width:0.60000002;stroke-linecap:butt;stroke-linejoin:miter;marker-end:url(#Arrow1Lend);stroke-miterlimit:1;stroke-dasharray:0.59999998, 0.59999998;stroke-dashoffset:0;stroke-opacity:1"
       d="M 625.00001,127.50941 L 625.01486,51.187733"
       id="path4053"
       sodipodi:nodetypes="cc" />
    <path
       sodipodi:type="arc"
       style="fill:#ff0000;fill-opacity:1;stroke:none;stroke-width:0.60000002;stroke-linecap:butt;stroke-linejoin:round;stroke-miterlimit:1;stroke-dasharray:0.6, 0.6;stroke-dashoffset:0;stroke-opacity:1"
       id="path4055"
       sodipodi:cx="420"
       sodipodi:cy="67.362183"
       sodipodi:rx="5"
       sodipodi:ry="5"
       d="M 425,67.362183 A 5,5 0 1 1 415,67.362183 A 5,5 0 1 1 425,67.362183 z"
       transform="matrix(-0.8515563,-0.5242631,0.5242631,-0.8515563,947.33815,405.06261)" />
  </g>
</svg>
