<?xml version="1.0" encoding="UTF-8" standalone="no"?>
<!-- Created with Inkscape (http://www.inkscape.org/) -->
<svg
   xmlns:dc="http://purl.org/dc/elements/1.1/"
   xmlns:cc="http://creativecommons.org/ns#"
   xmlns:rdf="http://www.w3.org/1999/02/22-rdf-syntax-ns#"
   xmlns:svg="http://www.w3.org/2000/svg"
   xmlns="http://www.w3.org/2000/svg"
   xmlns:sodipodi="http://sodipodi.sourceforge.net/DTD/sodipodi-0.dtd"
   xmlns:inkscape="http://www.inkscape.org/namespaces/inkscape"
   width="708.66138"
   height="425.19684"
   id="svg3248"
   sodipodi:version="0.32"
   inkscape:version="0.46"
   version="1.0"
   sodipodi:docname="Zeichnung.svg"
   inkscape:output_extension="org.inkscape.output.svg.inkscape">
  <defs
     id="defs3250">
    <inkscape:perspective
       sodipodi:type="inkscape:persp3d"
       inkscape:vp_x="0 : 526.18109 : 1"
       inkscape:vp_y="0 : 1000 : 0"
       inkscape:vp_z="744.09448 : 526.18109 : 1"
       inkscape:persp3d-origin="372.04724 : 350.78739 : 1"
       id="perspective3256" />
  </defs>
  <sodipodi:namedview
     id="base"
     pagecolor="#ffffff"
     bordercolor="#666666"
     borderopacity="1.0"
     inkscape:pageopacity="0.0"
     inkscape:pageshadow="2"
     inkscape:zoom="0.98994949"
     inkscape:cx="296.37535"
     inkscape:cy="193.53379"
     inkscape:document-units="px"
     inkscape:current-layer="layer1"
     showgrid="true"
     units="mm"
     inkscape:snap-global="true"
     inkscape:snap-guide="false"
     inkscape:snap-bbox="true"
     inkscape:object-paths="true"
     inkscape:object-nodes="true"
     inkscape:bbox-paths="true"
     inkscape:bbox-nodes="true"
     objecttolerance="5"
     gridtolerance="5"
     guidetolerance="5"
     inkscape:window-width="1439"
     inkscape:window-height="825"
     inkscape:window-x="0"
     inkscape:window-y="25">
    <inkscape:grid
       type="xygrid"
       id="grid3258"
       units="mm"
       visible="true"
       enabled="true" />
  </sodipodi:namedview>
  <metadata
     id="metadata3253">
    <rdf:RDF>
      <cc:Work
         rdf:about="">
        <dc:format>image/svg+xml</dc:format>
        <dc:type
           rdf:resource="http://purl.org/dc/dcmitype/StillImage" />
      </cc:Work>
    </rdf:RDF>
  </metadata>
  <g
     inkscape:label="Ebene 1"
     inkscape:groupmode="layer"
     id="layer1">
    <rect
       style="fill:none;fill-opacity:1;fill-rule:evenodd;stroke:#000000;stroke-width:1;stroke-linecap:butt;stroke-linejoin:miter;stroke-miterlimit:4;stroke-dasharray:none;stroke-opacity:1"
       id="rect2475"
       width="708.66138"
       height="425.19684"
       x="0"
       y="-1.2014794e-05"
       ry="1.0101526" />
    <path
       style="fill:#666666;fill-opacity:1;stroke:#000000;stroke-width:1;stroke-linecap:butt;stroke-linejoin:miter;stroke-miterlimit:4;stroke-dasharray:none;stroke-opacity:1"
       d="M 0,382.67715 L 0,336.61416 L 223.25309,338.2227 L 708.66142,336.61416 L 708.66142,381.70978 L 708.66142,425.19684 L 224.26324,426.80538 L 0,426.80538 L 0,382.67715 z"
       id="path3393"
       sodipodi:nodetypes="ccccccccc" />
    <path
       style="fill:none;fill-rule:evenodd;stroke:#787878;stroke-width:0.99999994px;stroke-linecap:butt;stroke-linejoin:miter;stroke-opacity:1;display:inline"
       d="M 219.42223,253.69255 C 56.833642,21.491984 56.833642,21.491984 56.833642,21.491984"
       id="path3463"
       sodipodi:nodetypes="cc" />
    <path
       style="fill:none;fill-rule:evenodd;stroke:#787878;stroke-width:0.99999994px;stroke-linecap:butt;stroke-linejoin:miter;stroke-opacity:1;display:inline"
       d="M 204.90969,263.85434 C 56.833642,21.491984 56.833642,21.491984 56.833642,21.491984"
       id="path3465"
       sodipodi:nodetypes="cc" />
    <path
       style="fill:none;fill-rule:evenodd;stroke:#787878;stroke-width:0.99999994px;stroke-linecap:butt;stroke-linejoin:miter;stroke-opacity:1;display:inline"
       d="M 190.39715,274.01613 C 56.833642,21.491984 56.833642,21.491984 56.833642,21.491984"
       id="path3467"
       sodipodi:nodetypes="cc" />
    <path
       style="fill:none;fill-rule:evenodd;stroke:#787878;stroke-width:0.99999994px;stroke-linecap:butt;stroke-linejoin:miter;stroke-opacity:1;display:inline"
       d="M 175.88462,284.17791 C 56.833642,21.491984 56.833642,21.491984 56.833642,21.491984"
       id="path3469"
       sodipodi:nodetypes="cc" />
    <path
       style="fill:none;fill-rule:evenodd;stroke:#787878;stroke-width:0.99999994px;stroke-linecap:butt;stroke-linejoin:miter;stroke-opacity:1;display:inline"
       d="M 161.37208,294.3397 C 56.833642,21.491984 56.833642,21.491984 56.833642,21.491984"
       id="path3471"
       sodipodi:nodetypes="cc" />
    <path
       style="fill:none;fill-rule:evenodd;stroke:#787878;stroke-width:0.99999994px;stroke-linecap:butt;stroke-linejoin:miter;stroke-opacity:1;display:inline"
       d="M 146.85955,304.50148 C 56.833642,21.491984 56.833642,21.491984 56.833642,21.491984"
       id="path3473"
       sodipodi:nodetypes="cc" />
    <path
       style="fill:none;fill-opacity:1;fill-rule:evenodd;stroke:#787878;stroke-width:0.99999994px;stroke-linecap:butt;stroke-linejoin:miter;stroke-opacity:1;display:inline"
       d="M 132.34701,314.66327 C 56.833642,21.491984 56.833642,21.491984 56.833642,21.491984"
       id="path3475"
       sodipodi:nodetypes="cc" />
    <path
       style="fill:none;fill-rule:evenodd;stroke:#787878;stroke-width:0.99999994px;stroke-linecap:butt;stroke-linejoin:miter;stroke-opacity:1;display:inline"
       d="M 117.83448,324.82505 C 56.833642,21.491984 56.833642,21.491984 56.833642,21.491984"
       id="path3477"
       sodipodi:nodetypes="cc" />
    <path
       style="fill:#7a7a7a;fill-opacity:0.17254902;fill-rule:evenodd;stroke:#787878;stroke-width:0.99999994px;stroke-linecap:butt;stroke-linejoin:miter;stroke-opacity:1;display:inline"
       d="M 103.32194,334.98684 C 56.833642,21.491984 56.833642,21.491984 56.833642,21.491984"
       id="path3479"
       sodipodi:nodetypes="cc" />
    <path
       style="fill:none;fill-rule:evenodd;stroke:#787878;stroke-width:0.99999994px;stroke-linecap:butt;stroke-linejoin:miter;stroke-opacity:1;display:inline"
       d="M 88.809408,345.14863 C 56.833642,21.491984 56.833642,21.491984 56.833642,21.491984"
       id="path3481"
       sodipodi:nodetypes="cc" />
    <path
       style="fill:none;fill-rule:evenodd;stroke:#787878;stroke-width:0.99999994px;stroke-linecap:butt;stroke-linejoin:miter;stroke-opacity:1;display:inline"
       d="M 233.75652,243.27621 C 56.833642,21.491984 56.833642,21.491984 56.833642,21.491984"
       id="path3483"
       sodipodi:nodetypes="cc" />
    <path
       style="fill:none;fill-rule:evenodd;stroke:#787878;stroke-width:0.99999994px;stroke-linecap:butt;stroke-linejoin:miter;stroke-opacity:1;display:inline"
       d="M 248.26906,233.11442 C 56.833642,21.491984 56.833642,21.491984 56.833642,21.491984"
       id="path3485"
       sodipodi:nodetypes="cc" />
    <path
       style="fill:none;fill-rule:evenodd;stroke:#787878;stroke-width:0.99999994px;stroke-linecap:butt;stroke-linejoin:miter;stroke-opacity:1;display:inline"
       d="M 262.95983,223.20719 C 56.833642,21.491984 56.833642,21.491984 56.833642,21.491984"
       id="path3487"
       sodipodi:nodetypes="cc" />
    <path
       style="fill:none;fill-rule:evenodd;stroke:#787878;stroke-width:0.99999994px;stroke-linecap:butt;stroke-linejoin:miter;stroke-opacity:1;display:inline"
       d="M 277.47237,213.0454 C 56.833642,21.491984 56.833642,21.491984 56.833642,21.491984"
       id="path3489"
       sodipodi:nodetypes="cc" />
    <path
       style="fill:none;fill-rule:evenodd;stroke:#787878;stroke-width:0.99999994px;stroke-linecap:butt;stroke-linejoin:miter;stroke-opacity:1;display:inline"
       d="M 291.9849,202.88362 C 56.833642,21.491984 56.833642,21.491984 56.833642,21.491984"
       id="path3491"
       sodipodi:nodetypes="cc" />
    <path
       style="fill:none;fill-opacity:1;fill-rule:evenodd;stroke:#787878;stroke-width:0.99999994px;stroke-linecap:butt;stroke-linejoin:miter;stroke-opacity:1;display:inline"
       d="M 306.49744,192.72183 C 56.833642,21.491984 56.833642,21.491984 56.833642,21.491984"
       id="path3493"
       sodipodi:nodetypes="cc" />
    <path
       style="fill:none;fill-rule:evenodd;stroke:#787878;stroke-width:0.99999994px;stroke-linecap:butt;stroke-linejoin:miter;stroke-opacity:1;display:inline"
       d="M 321.00997,182.56005 C 56.833642,21.491984 56.833642,21.491984 56.833642,21.491984"
       id="path3495"
       sodipodi:nodetypes="cc" />
    <path
       style="fill:#7a7a7a;fill-opacity:0.17254902;fill-rule:evenodd;stroke:#787878;stroke-width:0.99999994px;stroke-linecap:butt;stroke-linejoin:miter;stroke-opacity:1;display:inline"
       d="M 335.52251,172.39826 C 56.833642,21.491984 56.833642,21.491984 56.833642,21.491984"
       id="path3497"
       sodipodi:nodetypes="cc" />
    <path
       style="fill:none;fill-rule:evenodd;stroke:#787878;stroke-width:0.99999994px;stroke-linecap:butt;stroke-linejoin:miter;stroke-opacity:1;display:inline"
       d="M 350.03504,162.23647 C 56.833642,21.491984 56.833642,21.491984 56.833642,21.491984"
       id="path3499"
       sodipodi:nodetypes="cc" />
    <path
       sodipodi:type="arc"
       style="fill:#000000;fill-opacity:1;stroke:none;stroke-width:1;stroke-linecap:butt;stroke-linejoin:miter;stroke-miterlimit:4;stroke-dasharray:none;stroke-opacity:1;display:inline"
       id="path2432"
       sodipodi:cx="56.692913"
       sodipodi:cy="340.00211"
       sodipodi:rx="3.5433071"
       sodipodi:ry="3.6986804"
       d="M 60.23622,340.00211 A 3.5433071,3.6986804 0 1 1 53.149606,340.00211 A 3.5433071,3.6986804 0 1 1 60.23622,340.00211 z"
       transform="matrix(0.819152,-0.5735764,0.5735764,0.819152,-152.737,99.025667)" />
    <path
       sodipodi:type="arc"
       style="fill:#000000;fill-opacity:1;stroke:none;stroke-width:1;stroke-linecap:butt;stroke-linejoin:miter;stroke-miterlimit:4;stroke-dasharray:none;stroke-opacity:1;display:inline"
       id="path3204"
       sodipodi:cx="56.692913"
       sodipodi:cy="340.00211"
       sodipodi:rx="3.5433071"
       sodipodi:ry="3.6986804"
       d="M 60.23622,340.00211 A 3.5433071,3.6986804 0 1 1 53.149606,340.00211 A 3.5433071,3.6986804 0 1 1 60.23622,340.00211 z"
       transform="matrix(0.819152,-0.5735764,0.5735764,0.819152,-167.24954,109.18745)" />
    <path
       sodipodi:type="arc"
       style="fill:#000000;fill-opacity:1;stroke:none;stroke-width:1;stroke-linecap:butt;stroke-linejoin:miter;stroke-miterlimit:4;stroke-dasharray:none;stroke-opacity:1;display:inline"
       id="path3206"
       sodipodi:cx="56.692913"
       sodipodi:cy="340.00211"
       sodipodi:rx="3.5433071"
       sodipodi:ry="3.6986804"
       d="M 60.23622,340.00211 A 3.5433071,3.6986804 0 1 1 53.149606,340.00211 A 3.5433071,3.6986804 0 1 1 60.23622,340.00211 z"
       transform="matrix(0.819152,-0.5735764,0.5735764,0.819152,-138.22447,88.863881)" />
    <path
       sodipodi:type="arc"
       style="fill:#000000;fill-opacity:1;stroke:none;stroke-width:1;stroke-linecap:butt;stroke-linejoin:miter;stroke-miterlimit:4;stroke-dasharray:none;stroke-opacity:1;display:inline"
       id="path3208"
       sodipodi:cx="56.692913"
       sodipodi:cy="340.00211"
       sodipodi:rx="3.5433071"
       sodipodi:ry="3.6986804"
       d="M 60.23622,340.00211 A 3.5433071,3.6986804 0 1 1 53.149606,340.00211 A 3.5433071,3.6986804 0 1 1 60.23622,340.00211 z"
       transform="matrix(0.819152,-0.5735764,0.5735764,0.819152,-123.71193,78.702094)" />
    <path
       sodipodi:type="arc"
       style="fill:#000000;fill-opacity:1;stroke:none;stroke-width:1;stroke-linecap:butt;stroke-linejoin:miter;stroke-miterlimit:4;stroke-dasharray:none;stroke-opacity:1;display:inline"
       id="path3210"
       sodipodi:cx="56.692913"
       sodipodi:cy="340.00211"
       sodipodi:rx="3.5433071"
       sodipodi:ry="3.6986804"
       d="M 60.23622,340.00211 A 3.5433071,3.6986804 0 1 1 53.149606,340.00211 A 3.5433071,3.6986804 0 1 1 60.23622,340.00211 z"
       transform="matrix(0.819152,-0.5735764,0.5735764,0.819152,-109.1994,68.540309)" />
    <path
       sodipodi:type="arc"
       style="fill:#000000;fill-opacity:1;stroke:none;stroke-width:1;stroke-linecap:butt;stroke-linejoin:miter;stroke-miterlimit:4;stroke-dasharray:none;stroke-opacity:1;display:inline"
       id="path3212"
       sodipodi:cx="56.692913"
       sodipodi:cy="340.00211"
       sodipodi:rx="3.5433071"
       sodipodi:ry="3.6986804"
       d="M 60.23622,340.00211 A 3.5433071,3.6986804 0 1 1 53.149606,340.00211 A 3.5433071,3.6986804 0 1 1 60.23622,340.00211 z"
       transform="matrix(0.819152,-0.5735764,0.5735764,0.819152,-94.686863,58.378521)" />
    <path
       sodipodi:type="arc"
       style="fill:#000000;fill-opacity:1;stroke:none;stroke-width:1;stroke-linecap:butt;stroke-linejoin:miter;stroke-miterlimit:4;stroke-dasharray:none;stroke-opacity:1;display:inline"
       id="path3214"
       sodipodi:cx="56.692913"
       sodipodi:cy="340.00211"
       sodipodi:rx="3.5433071"
       sodipodi:ry="3.6986804"
       d="M 60.23622,340.00211 A 3.5433071,3.6986804 0 1 1 53.149606,340.00211 A 3.5433071,3.6986804 0 1 1 60.23622,340.00211 z"
       transform="matrix(0.819152,-0.5735764,0.5735764,0.819152,-80.174332,48.216738)" />
    <path
       sodipodi:type="arc"
       style="fill:#000000;fill-opacity:1;stroke:none;stroke-width:1;stroke-linecap:butt;stroke-linejoin:miter;stroke-miterlimit:4;stroke-dasharray:none;stroke-opacity:1;display:inline"
       id="path3216"
       sodipodi:cx="56.692913"
       sodipodi:cy="340.00211"
       sodipodi:rx="3.5433071"
       sodipodi:ry="3.6986804"
       d="M 60.23622,340.00211 A 3.5433071,3.6986804 0 1 1 53.149606,340.00211 A 3.5433071,3.6986804 0 1 1 60.23622,340.00211 z"
       transform="matrix(0.819152,-0.5735764,0.5735764,0.819152,-65.661794,38.054949)" />
    <path
       sodipodi:type="arc"
       style="fill:#000000;fill-opacity:1;stroke:none;stroke-width:1;stroke-linecap:butt;stroke-linejoin:miter;stroke-miterlimit:4;stroke-dasharray:none;stroke-opacity:1;display:inline"
       id="path3218"
       sodipodi:cx="56.692913"
       sodipodi:cy="340.00211"
       sodipodi:rx="3.5433071"
       sodipodi:ry="3.6986804"
       d="M 60.23622,340.00211 A 3.5433071,3.6986804 0 1 1 53.149606,340.00211 A 3.5433071,3.6986804 0 1 1 60.23622,340.00211 z"
       transform="matrix(0.819152,-0.5735764,0.5735764,0.819152,-51.149263,27.893165)" />
    <path
       sodipodi:type="arc"
       style="fill:#000000;fill-opacity:1;stroke:none;stroke-width:1;stroke-linecap:butt;stroke-linejoin:miter;stroke-miterlimit:4;stroke-dasharray:none;stroke-opacity:1;display:inline"
       id="path3220"
       sodipodi:cx="56.692913"
       sodipodi:cy="340.00211"
       sodipodi:rx="3.5433071"
       sodipodi:ry="3.6986804"
       d="M 60.23622,340.00211 A 3.5433071,3.6986804 0 1 1 53.149606,340.00211 A 3.5433071,3.6986804 0 1 1 60.23622,340.00211 z"
       transform="matrix(0.819152,-0.5735764,0.5735764,0.819152,-36.636723,17.731376)" />
    <path
       sodipodi:type="arc"
       style="fill:#000000;fill-opacity:1;stroke:none;stroke-width:1;stroke-linecap:butt;stroke-linejoin:miter;stroke-miterlimit:4;stroke-dasharray:none;stroke-opacity:1;display:inline"
       id="path3222"
       sodipodi:cx="56.692913"
       sodipodi:cy="340.00211"
       sodipodi:rx="3.5433071"
       sodipodi:ry="3.6986804"
       d="M 60.23622,340.00211 A 3.5433071,3.6986804 0 1 1 53.149606,340.00211 A 3.5433071,3.6986804 0 1 1 60.23622,340.00211 z"
       transform="matrix(0.819152,-0.5735764,0.5735764,0.819152,-22.124192,7.5695927)" />
    <path
       sodipodi:type="arc"
       style="fill:#000000;fill-opacity:1;stroke:none;stroke-width:1;stroke-linecap:butt;stroke-linejoin:miter;stroke-miterlimit:4;stroke-dasharray:none;stroke-opacity:1;display:inline"
       id="path3224"
       sodipodi:cx="56.692913"
       sodipodi:cy="340.00211"
       sodipodi:rx="3.5433071"
       sodipodi:ry="3.6986804"
       d="M 60.23622,340.00211 A 3.5433071,3.6986804 0 1 1 53.149606,340.00211 A 3.5433071,3.6986804 0 1 1 60.23622,340.00211 z"
       transform="matrix(0.819152,-0.5735764,0.5735764,0.819152,-7.6116533,-2.5921966)" />
    <path
       sodipodi:type="arc"
       style="fill:#000000;fill-opacity:1;stroke:none;stroke-width:1;stroke-linecap:butt;stroke-linejoin:miter;stroke-miterlimit:4;stroke-dasharray:none;stroke-opacity:1;display:inline"
       id="path3226"
       sodipodi:cx="56.692913"
       sodipodi:cy="340.00211"
       sodipodi:rx="3.5433071"
       sodipodi:ry="3.6986804"
       d="M 60.23622,340.00211 A 3.5433071,3.6986804 0 1 1 53.149606,340.00211 A 3.5433071,3.6986804 0 1 1 60.23622,340.00211 z"
       transform="matrix(0.819152,-0.5735764,0.5735764,0.819152,6.9008777,-12.75398)" />
    <path
       sodipodi:type="arc"
       style="fill:#000000;fill-opacity:1;stroke:none;stroke-width:1;stroke-linecap:butt;stroke-linejoin:miter;stroke-miterlimit:4;stroke-dasharray:none;stroke-opacity:1;display:inline"
       id="path3228"
       sodipodi:cx="56.692913"
       sodipodi:cy="340.00211"
       sodipodi:rx="3.5433071"
       sodipodi:ry="3.6986804"
       d="M 60.23622,340.00211 A 3.5433071,3.6986804 0 1 1 53.149606,340.00211 A 3.5433071,3.6986804 0 1 1 60.23622,340.00211 z"
       transform="matrix(0.819152,-0.5735764,0.5735764,0.819152,21.413417,-22.915769)" />
    <path
       sodipodi:type="arc"
       style="fill:#000000;fill-opacity:1;stroke:none;stroke-width:1;stroke-linecap:butt;stroke-linejoin:miter;stroke-miterlimit:4;stroke-dasharray:none;stroke-opacity:1;display:inline"
       id="path3230"
       sodipodi:cx="56.692913"
       sodipodi:cy="340.00211"
       sodipodi:rx="3.5433071"
       sodipodi:ry="3.6986804"
       d="M 60.23622,340.00211 A 3.5433071,3.6986804 0 1 1 53.149606,340.00211 A 3.5433071,3.6986804 0 1 1 60.23622,340.00211 z"
       transform="matrix(0.819152,-0.5735764,0.5735764,0.819152,35.925948,-33.077553)" />
    <path
       sodipodi:type="arc"
       style="fill:#000000;fill-opacity:1;stroke:none;stroke-width:1;stroke-linecap:butt;stroke-linejoin:miter;stroke-miterlimit:4;stroke-dasharray:none;stroke-opacity:1;display:inline"
       id="path3232"
       sodipodi:cx="56.692913"
       sodipodi:cy="340.00211"
       sodipodi:rx="3.5433071"
       sodipodi:ry="3.6986804"
       d="M 60.23622,340.00211 A 3.5433071,3.6986804 0 1 1 53.149606,340.00211 A 3.5433071,3.6986804 0 1 1 60.23622,340.00211 z"
       transform="matrix(0.819152,-0.5735764,0.5735764,0.819152,50.438487,-43.239342)" />
    <path
       sodipodi:type="arc"
       style="fill:#000000;fill-opacity:1;stroke:none;stroke-width:1;stroke-linecap:butt;stroke-linejoin:miter;stroke-miterlimit:4;stroke-dasharray:none;stroke-opacity:1;display:inline"
       id="path3234"
       sodipodi:cx="56.692913"
       sodipodi:cy="340.00211"
       sodipodi:rx="3.5433071"
       sodipodi:ry="3.6986804"
       d="M 60.23622,340.00211 A 3.5433071,3.6986804 0 1 1 53.149606,340.00211 A 3.5433071,3.6986804 0 1 1 60.23622,340.00211 z"
       transform="matrix(0.819152,-0.5735764,0.5735764,0.819152,64.951018,-53.401126)" />
    <path
       sodipodi:type="arc"
       style="fill:#000000;fill-opacity:1;stroke:none;stroke-width:1;stroke-linecap:butt;stroke-linejoin:miter;stroke-miterlimit:4;stroke-dasharray:none;stroke-opacity:1;display:inline"
       id="path3236"
       sodipodi:cx="56.692913"
       sodipodi:cy="340.00211"
       sodipodi:rx="3.5433071"
       sodipodi:ry="3.6986804"
       d="M 60.23622,340.00211 A 3.5433071,3.6986804 0 1 1 53.149606,340.00211 A 3.5433071,3.6986804 0 1 1 60.23622,340.00211 z"
       transform="matrix(0.819152,-0.5735764,0.5735764,0.819152,79.463557,-63.562915)" />
    <path
       sodipodi:type="arc"
       style="fill:#000000;fill-opacity:1;stroke:none;stroke-width:1;stroke-linecap:butt;stroke-linejoin:miter;stroke-miterlimit:4;stroke-dasharray:none;stroke-opacity:1;display:inline"
       id="path3238"
       sodipodi:cx="56.692913"
       sodipodi:cy="340.00211"
       sodipodi:rx="3.5433071"
       sodipodi:ry="3.6986804"
       d="M 60.23622,340.00211 A 3.5433071,3.6986804 0 1 1 53.149606,340.00211 A 3.5433071,3.6986804 0 1 1 60.23622,340.00211 z"
       transform="matrix(0.819152,-0.5735764,0.5735764,0.819152,93.976096,-73.724704)" />
    <path
       sodipodi:type="arc"
       style="fill:#000000;fill-opacity:1;stroke:none;stroke-width:1;stroke-linecap:butt;stroke-linejoin:miter;stroke-miterlimit:4;stroke-dasharray:none;stroke-opacity:1;display:inline"
       id="path3240"
       sodipodi:cx="56.692913"
       sodipodi:cy="340.00211"
       sodipodi:rx="3.5433071"
       sodipodi:ry="3.6986804"
       d="M 60.23622,340.00211 A 3.5433071,3.6986804 0 1 1 53.149606,340.00211 A 3.5433071,3.6986804 0 1 1 60.23622,340.00211 z"
       transform="matrix(0.819152,-0.5735764,0.5735764,0.819152,108.48863,-83.886488)" />
    <path
       sodipodi:type="arc"
       style="fill:#000000;fill-opacity:1;stroke:none;stroke-width:1;stroke-linecap:butt;stroke-linejoin:miter;stroke-miterlimit:4;stroke-dasharray:none;stroke-opacity:1;display:inline"
       id="path3242"
       sodipodi:cx="56.692913"
       sodipodi:cy="340.00211"
       sodipodi:rx="3.5433071"
       sodipodi:ry="3.6986804"
       d="M 60.23622,340.00211 A 3.5433071,3.6986804 0 1 1 53.149606,340.00211 A 3.5433071,3.6986804 0 1 1 60.23622,340.00211 z"
       transform="matrix(0.819152,-0.5735764,0.5735764,0.819152,123.00117,-94.048277)" />
    <path
       style="fill:none;fill-rule:evenodd;stroke:#da0000;stroke-width:1.99999988;stroke-linecap:butt;stroke-linejoin:miter;stroke-miterlimit:4;stroke-dasharray:none;stroke-opacity:1;display:inline"
       d="M 58.293923,85.353166 C 116.34407,44.706015 116.34407,44.706015 116.34407,44.706015"
       id="path3244"
       sodipodi:nodetypes="cc" />
    <path
       sodipodi:type="arc"
       style="fill:#000000;fill-opacity:1;stroke:none;stroke-width:1;stroke-linecap:butt;stroke-linejoin:miter;stroke-miterlimit:4;stroke-dasharray:none;stroke-opacity:1;display:inline"
       id="path3246"
       sodipodi:cx="56.692913"
       sodipodi:cy="340.00211"
       sodipodi:rx="3.5433071"
       sodipodi:ry="3.6986804"
       d="M 60.23622,340.00211 A 3.5433071,3.6986804 0 1 1 53.149606,340.00211 A 3.5433071,3.6986804 0 1 1 60.23622,340.00211 z"
       transform="matrix(0.819152,-0.5735764,0.5735764,0.819152,-184.71278,-224.63097)" />
    <path
       style="fill:none;fill-rule:evenodd;stroke:#000000;stroke-width:0.99999994px;stroke-linecap:butt;stroke-linejoin:miter;stroke-opacity:1;display:inline"
       d="M 73.781144,354.57388 L 73.781144,354.57388 C 73.781144,354.57388 73.78114,354.57389 56.496158,21.010005 C 364.03185,151.33815 364.03185,151.33815 364.03185,151.33815"
       id="path3451"
       sodipodi:nodetypes="cccc" />
  </g>
</svg>
