<?xml version="1.0" encoding="UTF-8" standalone="no"?>
<!-- Created with Inkscape (http://www.inkscape.org/) -->

<svg
   xmlns:dc="http://purl.org/dc/elements/1.1/"
   xmlns:cc="http://creativecommons.org/ns#"
   xmlns:rdf="http://www.w3.org/1999/02/22-rdf-syntax-ns#"
   xmlns:svg="http://www.w3.org/2000/svg"
   xmlns="http://www.w3.org/2000/svg"
   xmlns:sodipodi="http://sodipodi.sourceforge.net/DTD/sodipodi-0.dtd"
   xmlns:inkscape="http://www.inkscape.org/namespaces/inkscape"
   id="svg2"
   version="1.1"
   inkscape:version="0.48.2 r9819"
   width="389.55945"
   height="135.83092"
   xml:space="preserve"
   sodipodi:docname="sinusoid.svg"><metadata
     id="metadata8"><rdf:RDF><cc:Work
         rdf:about=""><dc:format>image/svg+xml</dc:format><dc:type
           rdf:resource="http://purl.org/dc/dcmitype/StillImage" /><dc:title></dc:title></cc:Work></rdf:RDF></metadata><defs
     id="defs6"><marker
       inkscape:stockid="SemiCircleOut"
       orient="auto"
       refY="0"
       refX="0"
       id="SemiCircleOut"
       style="overflow:visible"><path
         id="path5288"
         d="m -2.5,-0.80913858 c 0,2.75999998 -2.24,4.99999998 -5,4.99999998 l 0,-10 c 2.76,0 5,2.24 5,5.00000002 z"
         style="fill-rule:evenodd;stroke:#000000;stroke-width:1pt;marker-start:none;marker-end:none"
         transform="matrix(0.6,0,0,0.6,4.2752958,0.4580676)"
         inkscape:connector-curvature="0" /></marker><marker
       inkscape:stockid="DiamondMend"
       orient="auto"
       refY="0"
       refX="0"
       id="DiamondMend"
       style="overflow:visible"><path
         id="path5207"
         d="M 0,-7.0710768 -7.0710894,0 0,7.0710589 7.0710462,0 0,-7.0710768 z"
         style="fill-rule:evenodd;stroke:#000000;stroke-width:1pt;marker-start:none"
         transform="matrix(0.4,0,0,0.4,-2.6,0)"
         inkscape:connector-curvature="0" /></marker><marker
       inkscape:stockid="DotS"
       orient="auto"
       refY="0"
       refX="0"
       id="DotS"
       style="overflow:visible"><path
         id="path4970"
         d="m -2.5,-1 c 0,2.76 -2.24,5 -5,5 -2.76,0 -5,-2.24 -5,-5 0,-2.76 2.24,-5 5,-5 2.76,0 5,2.24 5,5 z"
         style="fill-rule:evenodd;stroke:#000000;stroke-width:1pt;marker-start:none;marker-end:none"
         transform="matrix(0.2,0,0,0.2,1.48,0.2)"
         inkscape:connector-curvature="0" /></marker><marker
       inkscape:stockid="DotM"
       orient="auto"
       refY="0"
       refX="0"
       id="DotM"
       style="overflow:visible"><path
         id="path4967"
         d="m -2.5,-1 c 0,2.76 -2.24,5 -5,5 -2.76,0 -5,-2.24 -5,-5 0,-2.76 2.24,-5 5,-5 2.76,0 5,2.24 5,5 z"
         style="fill-rule:evenodd;stroke:#000000;stroke-width:1pt;marker-start:none;marker-end:none"
         transform="matrix(0.4,0,0,0.4,2.96,0.4)"
         inkscape:connector-curvature="0" /></marker><marker
       inkscape:stockid="DotL"
       orient="auto"
       refY="0"
       refX="0"
       id="DotL"
       style="overflow:visible"><path
         id="path4964"
         d="m -2.5,-1 c 0,2.76 -2.24,5 -5,5 -2.76,0 -5,-2.24 -5,-5 0,-2.76 2.24,-5 5,-5 2.76,0 5,2.24 5,5 z"
         style="fill-rule:evenodd;stroke:#000000;stroke-width:1pt;marker-start:none;marker-end:none"
         transform="matrix(0.8,0,0,0.8,5.92,0.8)"
         inkscape:connector-curvature="0" /></marker><marker
       inkscape:stockid="Arrow2Lstart"
       orient="auto"
       refY="0"
       refX="0"
       id="Arrow2Lstart"
       style="overflow:visible"><path
         id="path4920"
         style="font-size:12px;fill-rule:evenodd;stroke-width:0.625;stroke-linejoin:round"
         d="M 8.7185878,4.0337352 -2.2072895,0.01601326 8.7185884,-4.0017078 c -1.7454984,2.3720609 -1.7354408,5.6174519 -6e-7,8.035443 z"
         transform="matrix(1.1,0,0,1.1,1.1,0)"
         inkscape:connector-curvature="0" /></marker><marker
       inkscape:stockid="Arrow2Mstart"
       orient="auto"
       refY="0"
       refX="0"
       id="Arrow2Mstart"
       style="overflow:visible"><path
         id="path4926"
         style="font-size:12px;fill-rule:evenodd;stroke-width:0.625;stroke-linejoin:round"
         d="M 8.7185878,4.0337352 -2.2072895,0.01601326 8.7185884,-4.0017078 c -1.7454984,2.3720609 -1.7354408,5.6174519 -6e-7,8.035443 z"
         transform="scale(0.6,0.6)"
         inkscape:connector-curvature="0" /></marker><marker
       inkscape:stockid="Arrow2Lend"
       orient="auto"
       refY="0"
       refX="0"
       id="Arrow2Lend"
       style="overflow:visible"><path
         id="path4923"
         style="font-size:12px;fill-rule:evenodd;stroke-width:0.625;stroke-linejoin:round"
         d="M 8.7185878,4.0337352 -2.2072895,0.01601326 8.7185884,-4.0017078 c -1.7454984,2.3720609 -1.7354408,5.6174519 -6e-7,8.035443 z"
         transform="matrix(-1.1,0,0,-1.1,-1.1,0)"
         inkscape:connector-curvature="0" /></marker><marker
       inkscape:stockid="Arrow1Lstart"
       orient="auto"
       refY="0"
       refX="0"
       id="Arrow1Lstart"
       style="overflow:visible"><path
         id="path4902"
         d="M 0,0 5,-5 -12.5,0 5,5 0,0 z"
         style="fill-rule:evenodd;stroke:#000000;stroke-width:1pt;marker-start:none"
         transform="matrix(0.8,0,0,0.8,10,0)"
         inkscape:connector-curvature="0" /></marker><inkscape:perspective
       sodipodi:type="inkscape:persp3d"
       inkscape:vp_x="0 : 0.5 : 1"
       inkscape:vp_y="0 : 1000 : 0"
       inkscape:vp_z="1 : 0.5 : 1"
       inkscape:persp3d-origin="0.5 : 0.33333333 : 1"
       id="perspective10" /><clipPath
       clipPathUnits="userSpaceOnUse"
       id="clipPath48"><path
         d="m -4.68282,-141.74397 298.88913,0 0,375.64232 -298.88913,0"
         id="path50"
         inkscape:connector-curvature="0" /></clipPath><clipPath
       clipPathUnits="userSpaceOnUse"
       id="clipPath56"><path
         d="m -146.42612,-6.4e-4 0,92.15567 582.37575,0 0,-92.15567"
         id="path58"
         inkscape:connector-curvature="0" /></clipPath><clipPath
       clipPathUnits="userSpaceOnUse"
       id="clipPath80"><path
         d="m -4.68282,-6.4e-4 298.88913,0 0,92.15567 -298.88913,0 0,-92.15567 z"
         id="path82"
         inkscape:connector-curvature="0" /></clipPath><inkscape:perspective
       id="perspective3860"
       inkscape:persp3d-origin="0.5 : 0.33333333 : 1"
       inkscape:vp_z="1 : 0.5 : 1"
       inkscape:vp_y="0 : 1000 : 0"
       inkscape:vp_x="0 : 0.5 : 1"
       sodipodi:type="inkscape:persp3d" /><clipPath
       id="clipPath3954"
       clipPathUnits="userSpaceOnUse"><path
         id="path3956"
         d="m -4.68282,-6.4e-4 298.88913,0 0,92.15567 -298.88913,0 0,-92.15567 z"
         inkscape:connector-curvature="0" /></clipPath><clipPath
       id="clipPath3930"
       clipPathUnits="userSpaceOnUse"><path
         id="path3932"
         d="m -146.42612,-6.4e-4 0,92.15567 582.37575,0 0,-92.15567"
         inkscape:connector-curvature="0" /></clipPath><clipPath
       id="clipPath3922"
       clipPathUnits="userSpaceOnUse"><path
         id="path3924"
         d="m -4.68282,-141.74397 298.88913,0 0,375.64232 -298.88913,0"
         inkscape:connector-curvature="0" /></clipPath><inkscape:perspective
       id="perspective3884"
       inkscape:persp3d-origin="0.5 : 0.33333333 : 1"
       inkscape:vp_z="1 : 0.5 : 1"
       inkscape:vp_y="0 : 1000 : 0"
       inkscape:vp_x="0 : 0.5 : 1"
       sodipodi:type="inkscape:persp3d" /><inkscape:perspective
       id="perspective4282"
       inkscape:persp3d-origin="0.5 : 0.33333333 : 1"
       inkscape:vp_z="1 : 0.5 : 1"
       inkscape:vp_y="0 : 1000 : 0"
       inkscape:vp_x="0 : 0.5 : 1"
       sodipodi:type="inkscape:persp3d" /><clipPath
       id="clipPath4374"
       clipPathUnits="userSpaceOnUse"><path
         id="path4376"
         d="m -4.68282,-6.4e-4 298.88913,0 0,92.15567 -298.88913,0 0,-92.15567 z"
         inkscape:connector-curvature="0" /></clipPath><clipPath
       id="clipPath4350"
       clipPathUnits="userSpaceOnUse"><path
         id="path4352"
         d="m -146.42612,-6.4e-4 0,92.15567 582.37575,0 0,-92.15567"
         inkscape:connector-curvature="0" /></clipPath><clipPath
       id="clipPath4342"
       clipPathUnits="userSpaceOnUse"><path
         id="path4344"
         d="m -4.68282,-141.74397 298.88913,0 0,375.64232 -298.88913,0"
         inkscape:connector-curvature="0" /></clipPath><inkscape:perspective
       id="perspective4304"
       inkscape:persp3d-origin="0.5 : 0.33333333 : 1"
       inkscape:vp_z="1 : 0.5 : 1"
       inkscape:vp_y="0 : 1000 : 0"
       inkscape:vp_x="0 : 0.5 : 1"
       sodipodi:type="inkscape:persp3d" /><clipPath
       id="clipPath4606"
       clipPathUnits="userSpaceOnUse"><path
         id="path4608"
         d="m -4.68283,6.4e-4 298.88957,0 0,92.15518 -298.88957,0 0,-92.15518 z"
         inkscape:connector-curvature="0" /></clipPath><clipPath
       id="clipPath4582"
       clipPathUnits="userSpaceOnUse"><path
         id="path4584"
         d="m -146.44308,6.4e-4 0,92.15518 582.41006,0 0,-92.15518"
         inkscape:connector-curvature="0" /></clipPath><clipPath
       id="clipPath4574"
       clipPathUnits="userSpaceOnUse"><path
         id="path4576"
         d="m -4.68283,-141.75957 298.88957,0 0,375.67566 -298.88957,0"
         inkscape:connector-curvature="0" /></clipPath><inkscape:perspective
       id="perspective4536"
       inkscape:persp3d-origin="0.5 : 0.33333333 : 1"
       inkscape:vp_z="1 : 0.5 : 1"
       inkscape:vp_y="0 : 1000 : 0"
       inkscape:vp_x="0 : 0.5 : 1"
       sodipodi:type="inkscape:persp3d" /><clipPath
       id="clipPath7931"
       clipPathUnits="userSpaceOnUse"><path
         id="path7933"
         d="m -4.68283,6.4e-4 298.88957,0 0,92.15518 -298.88957,0 0,-92.15518 z"
         inkscape:connector-curvature="0" /></clipPath><clipPath
       id="clipPath7907"
       clipPathUnits="userSpaceOnUse"><path
         id="path7909"
         d="m -146.44308,6.4e-4 0,92.15518 582.41006,0 0,-92.15518"
         inkscape:connector-curvature="0" /></clipPath><clipPath
       id="clipPath7899"
       clipPathUnits="userSpaceOnUse"><path
         id="path7901"
         d="m -4.68283,-141.75957 298.88957,0 0,375.67566 -298.88957,0"
         inkscape:connector-curvature="0" /></clipPath><inkscape:perspective
       id="perspective7861"
       inkscape:persp3d-origin="0.5 : 0.33333333 : 1"
       inkscape:vp_z="1 : 0.5 : 1"
       inkscape:vp_y="0 : 1000 : 0"
       inkscape:vp_x="0 : 0.5 : 1"
       sodipodi:type="inkscape:persp3d" /><clipPath
       id="clipPath8368"
       clipPathUnits="userSpaceOnUse"><path
         id="path8370"
         d="m -4.68283,6.4e-4 298.88957,0 0,92.15518 -298.88957,0 0,-92.15518 z"
         inkscape:connector-curvature="0" /></clipPath><clipPath
       id="clipPath8344"
       clipPathUnits="userSpaceOnUse"><path
         id="path8346"
         d="m -146.44308,6.4e-4 0,92.15518 582.41006,0 0,-92.15518"
         inkscape:connector-curvature="0" /></clipPath><clipPath
       id="clipPath8336"
       clipPathUnits="userSpaceOnUse"><path
         id="path8338"
         d="m -4.68283,-141.75957 298.88957,0 0,375.67566 -298.88957,0"
         inkscape:connector-curvature="0" /></clipPath><inkscape:perspective
       id="perspective8298"
       inkscape:persp3d-origin="0.5 : 0.33333333 : 1"
       inkscape:vp_z="1 : 0.5 : 1"
       inkscape:vp_y="0 : 1000 : 0"
       inkscape:vp_x="0 : 0.5 : 1"
       sodipodi:type="inkscape:persp3d" /><inkscape:perspective
       id="perspective8741"
       inkscape:persp3d-origin="0.5 : 0.33333333 : 1"
       inkscape:vp_z="1 : 0.5 : 1"
       inkscape:vp_y="0 : 1000 : 0"
       inkscape:vp_x="0 : 0.5 : 1"
       sodipodi:type="inkscape:persp3d" /></defs><sodipodi:namedview
     pagecolor="#ffffff"
     bordercolor="#666666"
     borderopacity="1"
     objecttolerance="10"
     gridtolerance="10"
     guidetolerance="10"
     inkscape:pageopacity="0"
     inkscape:pageshadow="2"
     inkscape:window-width="1920"
     inkscape:window-height="1125"
     id="namedview4"
     showgrid="true"
     inkscape:zoom="4"
     inkscape:cx="131.3275"
     inkscape:cy="88.229375"
     inkscape:window-x="0"
     inkscape:window-y="24"
     inkscape:window-maximized="1"
     inkscape:current-layer="g12"
     fit-margin-top="0"
     fit-margin-left="0"
     fit-margin-right="0"
     fit-margin-bottom="0"><inkscape:grid
       type="xygrid"
       id="grid3076"
       empspacing="5"
       visible="true"
       enabled="true"
       snapvisiblegridlinesonly="true" /></sodipodi:namedview><g
     id="g12"
     inkscape:groupmode="layer"
     inkscape:label="test-figure2"
     transform="matrix(1.25,0,0,-1.25,-39.740053,125.83092)"
     style="display:inline"><g
       id="g20"
       transform="translate(41.303,0.199)" /><g
       id="g22"
       transform="translate(41.303,0.199)" /><g
       id="g24"
       transform="translate(41.303,0.199)"><g
         id="g26" /></g><g
       id="g28"
       transform="translate(41.303,0.199)" /><g
       id="g30"
       transform="translate(41.303,0.199)" /><g
       id="g32"
       transform="translate(41.303,0.199)" /><g
       transform="matrix(0,-1,1,0,-13.553951,32.28061)"
       id="g104"><g
         transform="matrix(0,1,-1,0,-38.376,43.424)"
         id="g106"><g
           id="g108"><g
             transform="translate(-7.61,-43.624)"
             id="g110">
<g
   transform="translate(7.61,43.624)"
   id="g116" /></g></g><g
           transform="translate(38.376,-43.424)"
           id="g118" /></g></g><g
       id="g44"
       transform="translate(45.986,0.2)"><g
         id="g46"
         clip-path="url(#clipPath48)" /></g><g
       id="g52"
       transform="translate(45.986,0.2)"><g
         id="g54"
         clip-path="url(#clipPath56)" /></g><path
       sodipodi:nodetypes="cc"
       d="m 41.30318,46.27695 301.47168,0"
       style="fill:none;stroke:#000000;stroke-width:0.3985;stroke-linecap:butt;stroke-linejoin:miter;stroke-miterlimit:10;stroke-opacity:1;stroke-dasharray:none;marker-end:url(#Arrow2Lend)"
       id="path60"
       inkscape:connector-curvature="0" /><path
       inkscape:connector-curvature="0"
       id="path70"
       style="fill:none;stroke:#000000;stroke-width:0.3985;stroke-linecap:butt;stroke-linejoin:miter;stroke-miterlimit:10;stroke-opacity:1;stroke-dasharray:none;marker-end:url(#Arrow2Lend)"
       d="M 41.30318,-7.9999972 41.30318,100"
       sodipodi:nodetypes="cc" /><g
       transform="matrix(0,1,-1,0,41.30318,90.3625)"
       id="g72"><g
         id="g74" /></g><g
       id="g78"
       clip-path="url(#clipPath80)"
       transform="translate(45.986,0.2)"><g
         id="g84" /></g><g
       id="g88"
       transform="translate(45.986,0.2)" /><g
       id="g120" /><path
       inkscape:connector-curvature="0"
       sodipodi:nodetypes="cc"
       id="path3078"
       d="m 102.5141,76.000111 144.01701,0"
       style="fill:none;stroke:#000000;stroke-width:0.40000001;stroke-linecap:butt;stroke-linejoin:miter;stroke-miterlimit:4;stroke-opacity:1;stroke-dasharray:none;marker-start:url(#Arrow2Lstart);marker-end:url(#Arrow2Lend)" /><path
       inkscape:connector-curvature="0"
       sodipodi:nodetypes="cc"
       id="path3078-0"
       d="m 132.84989,20.000111 144.00677,-1.14e-4"
       style="fill:none;stroke:#000000;stroke-width:0.40000001;stroke-linecap:butt;stroke-linejoin:miter;stroke-miterlimit:4;stroke-opacity:1;stroke-dasharray:none;marker-start:url(#Arrow2Lstart);marker-end:url(#Arrow2Lend)" /><path
       inkscape:connector-curvature="0"
       sodipodi:nodetypes="cc"
       id="path3874"
       d="M 81.975,92.000111 81.974855,46.974997"
       style="fill:none;stroke:#000000;stroke-width:0.40000001;stroke-linecap:butt;stroke-linejoin:miter;stroke-miterlimit:4;stroke-opacity:1;stroke-dasharray:none;marker-start:url(#Arrow2Lstart);marker-end:url(#Arrow2Lend)" /><path
       inkscape:connector-curvature="0"
       sodipodi:nodetypes="cc"
       id="path3874-3"
       d="m 299.57486,45.919819 0,-45.11970841"
       style="fill:none;stroke:#000000;stroke-width:0.40000001;stroke-linecap:butt;stroke-linejoin:miter;stroke-miterlimit:4;stroke-opacity:1;stroke-dasharray:none;marker-start:url(#Arrow2Lstart);marker-end:url(#Arrow2Lend)" /><g
       transform="translate(285.13312,-135.3569)"
       id="g8308" /><g
       transform="translate(285.13312,-135.3569)"
       id="g8310" /><g
       transform="translate(285.13312,-135.3569)"
       id="g8312"><g
         id="g8314" /></g><g
       transform="translate(285.13312,-135.3569)"
       id="g8316" /><g
       transform="translate(285.13312,-135.3569)"
       id="g8318" /><g
       transform="translate(285.13312,-135.3569)"
       id="g8320" /><g
       id="g8326"
       transform="translate(289.81512,-135.3569)" /><g
       id="g8408"
       transform="translate(243.53912,-135.5559)" /><g
       transform="translate(285.13312,-135.3569)"
       id="g8410" /><g
       transform="translate(285.13312,-135.3569)"
       id="g8412" /><g
       id="g122"
       transform="translate(41.303,0.199)" /><g
       id="g124"
       transform="translate(41.303,0.199)" /><path
       style="fill:none;stroke:#000000;stroke-width:0.5;stroke-linecap:butt;stroke-linejoin:miter;stroke-miterlimit:4;stroke-opacity:1;stroke-dasharray:none;display:inline"
       d="m 19.089844,57.445122 c 36.910156,-77 52.788504,-76.940754 90.334876,0 37.57528,76.999998 53.57528,76.999998 90.64559,0 37,-77.017242 52.92969,-77 90.28906,0 C 328,134.44512 344,134.44512 381,57.445122"
       id="path3155"
       inkscape:connector-curvature="0"
       sodipodi:nodetypes="csccc"
       transform="matrix(0.8,0,0,-0.8,30.774855,92.356208)" /><text
       xml:space="preserve"
       style="font-size:11.19999981px;font-style:normal;font-variant:normal;font-weight:normal;font-stretch:normal;line-height:125%;letter-spacing:0px;word-spacing:0px;fill:#000000;fill-opacity:1;stroke:none;font-family:DejaVu Sans;-inkscape-font-specification:Sans"
       x="154.77486"
       y="-77.600113"
       id="text7146"
       sodipodi:linespacing="125%"
       transform="scale(1,-1)"><tspan
         sodipodi:role="line"
         id="tspan7150"
         x="154.77486"
         y="-77.600113">λ</tspan></text>
<text
       xml:space="preserve"
       style="font-size:11.19999981px;font-style:normal;font-variant:normal;font-weight:normal;font-stretch:normal;line-height:125%;letter-spacing:0px;word-spacing:0px;fill:#000000;fill-opacity:1;stroke:none;font-family:DejaVu Sans;-inkscape-font-specification:Sans"
       x="30.774855"
       y="-52.006207"
       id="text7152"
       sodipodi:linespacing="125%"
       transform="scale(1,-1)"><tspan
         sodipodi:role="line"
         id="tspan7156"
         x="30.774855"
         y="-52.006207">η</tspan></text>
<text
       xml:space="preserve"
       style="font-size:11.19999981px;font-style:normal;font-variant:normal;font-weight:normal;font-stretch:normal;line-height:125%;letter-spacing:0px;word-spacing:0px;fill:#000000;fill-opacity:1;stroke:none;font-family:DejaVu Sans;-inkscape-font-specification:Sans"
       x="72.374855"
       y="-64.000107"
       id="text7158"
       sodipodi:linespacing="125%"
       transform="scale(1,-1)"><tspan
         sodipodi:role="line"
         id="tspan7160"
         x="72.374855"
         y="-64.000107">A</tspan></text>
<text
       xml:space="preserve"
       style="font-size:11.19999981px;font-style:normal;font-variant:normal;font-weight:normal;font-stretch:normal;line-height:125%;letter-spacing:0px;word-spacing:0px;fill:#000000;fill-opacity:1;stroke:none;font-family:DejaVu Sans;-inkscape-font-specification:Sans"
       x="222.77486"
       y="-21.600111"
       id="text7162"
       sodipodi:linespacing="125%"
       transform="scale(1,-1)"><tspan
         sodipodi:role="line"
         id="tspan7164"
         x="222.77486"
         y="-21.600111">T</tspan></text>
<text
       xml:space="preserve"
       style="font-size:11.19999981px;font-style:normal;font-variant:normal;font-weight:normal;font-stretch:normal;line-height:125%;letter-spacing:0px;word-spacing:0px;fill:#000000;fill-opacity:1;stroke:none;font-family:DejaVu Sans;-inkscape-font-specification:Sans"
       x="324.37485"
       y="-52.000111"
       id="text7166"
       sodipodi:linespacing="125%"
       transform="scale(1,-1)"><tspan
         sodipodi:role="line"
         id="tspan7168"
         x="324.37485"
         y="-52.000111">x/t</tspan></text>
<text
       xml:space="preserve"
       style="font-size:11.19999981px;font-style:normal;font-variant:normal;font-weight:normal;font-stretch:normal;line-height:125%;letter-spacing:0px;word-spacing:0px;fill:#000000;fill-opacity:1;stroke:none;display:inline;font-family:DejaVu Sans;-inkscape-font-specification:Sans"
       x="301.17487"
       y="-20.000111"
       id="text7158-4"
       sodipodi:linespacing="125%"
       transform="scale(1,-1)"><tspan
         sodipodi:role="line"
         id="tspan7160-8"
         x="301.17487"
         y="-20.000111">A</tspan></text>
</g></svg>